<svg xmlns="http://www.w3.org/2000/svg" xmlns:xlink="http://www.w3.org/1999/xlink" viewBox="0 0 393.19 244.83"><defs><style>.cls-1{isolation:isolate;}.cls-2{fill:#ffcce0;}.cls-3{opacity:0.35;fill:url(#_ÂÁ_Ï_ÌÌ_È_ËÂÌÚ_18);}.cls-4{fill:url(#_ÂÁ_Ï_ÌÌ_È_ËÂÌÚ_9);}.cls-5{opacity:0.75;}.cls-6{fill:#fff;}.cls-7{fill:url(#_ÂÁ_Ï_ÌÌ_È_ËÂÌÚ_9-2);}.cls-8{fill:#d8984a;}.cls-9{fill:#aa7133;}.cls-10,.cls-11{fill:#845124;}.cls-11,.cls-13{opacity:0.5;}.cls-11,.cls-13,.cls-17{mix-blend-mode:multiply;}.cls-12,.cls-13{fill:#af7337;}.cls-14{fill:#9a5633;}.cls-15{fill:#930f0f;}.cls-16{fill:#ea5757;}.cls-17{fill:#918181;opacity:0.8;}.cls-18{fill:#2e7dcc;}.cls-19{fill:#4c9ded;}.cls-20{fill:#724e2e;}.cls-21{fill:#3f3f3f;}.cls-22{fill:#aa753f;}.cls-23{fill:#f7a491;}.cls-24{fill:#184655;}.cls-25{fill:#355389;}.cls-26{fill:#f79c8d;}.cls-27{fill:#f47458;}.cls-28{fill:#3c8f7c;}.cls-29{fill:#f7cc7f;}.cls-30{fill:#8f6545;}.cls-31{fill:#787878;}</style><linearGradient id="_ÂÁ_Ï_ÌÌ_È_ËÂÌÚ_18" x1="29.74" y1="254.52" x2="378.41" y2="36.95" gradientUnits="userSpaceOnUse"><stop offset="0" stop-color="#fbbae2"/><stop offset="0.08" stop-color="#fbc0e4"/><stop offset="0.41" stop-color="#fcd7eb"/><stop offset="0.73" stop-color="#fde5ef"/><stop offset="1" stop-color="#fdeaf0"/></linearGradient><linearGradient id="_ÂÁ_Ï_ÌÌ_È_ËÂÌÚ_9" x1="227.84" y1="250.45" x2="392.94" y2="160.15" gradientUnits="userSpaceOnUse"><stop offset="0" stop-color="#fbbae2"/><stop offset="0.17" stop-color="#fccbe7"/><stop offset="0.42" stop-color="#fcdcec"/><stop offset="0.68" stop-color="#fde7ef"/><stop offset="1" stop-color="#fdeaf0"/></linearGradient><linearGradient id="_ÂÁ_Ï_ÌÌ_È_ËÂÌÚ_9-2" x1="8539.71" y1="250.45" x2="8704.8" y2="160.15" gradientTransform="matrix(-1, 0, 0, 1, 8705.05, 0)" xlink:href="#_ÂÁ_Ï_ÌÌ_È_ËÂÌÚ_9"/></defs><g class="cls-1"><g id="Layer_2" data-name="Layer 2"><g id="Layer_1-2" data-name="Layer 1"><path class="cls-2" d="M374.38,243.65c0,.15-5.48.3-15.35.43l-3.16,0H355l-2,0-3.81,0-6.15.05-5.09,0-11.79.08c-5.43,0-11.23.07-17.38.09-23.87.12-52.9.2-84.71.23H191.74c-60.5,0-113.46-.2-144.34-.48l-4.7,0h-.6l-3,0-2.36,0-1.32,0L29.46,244c-6.9-.11-10.66-.23-10.66-.36s3.43-.24,9.74-.34h0c1.76,0,3.74-.06,5.92-.09l1.51,0,2.54,0,2.43,0h.6l5.85,0c30.72-.28,83.34-.47,143.49-.48h44.89c29.15,0,55.58.12,77.37.23l13.83.08,10.86.08,5.44.05,5.62.05,4,0,2.67,0h.63l3.69,0C369.2,243.36,374.38,243.5,374.38,243.65Z"/><path class="cls-3" d="M367.92,219.9c-4.73,7.08-9.28,15.1-11.77,23.29-.1.31-.19.62-.28.93H355l-2,0-3.81,0-6.15.05-5.09,0-11.79.08c-5.43,0-11.23.07-17.38.09-23.87.12-52.9.2-84.71.23H191.74c-60.5,0-113.46-.2-144.34-.48l-4.7,0c-.59-.34-1.18-.68-1.76-1a45.74,45.74,0,0,1-13.75-65.45c6.72-9.59,17.05-16.55,22.2-27.06C60,129,44.63,103.75,45.29,79.68a53.09,53.09,0,0,1,64-50.47C127.32,33,142.73,46,161,47.92c16.34,1.72,32.29-5.71,46-14.8s26.26-20.08,41.16-27S281.53-3,295.45,5.7C311.91,16,316.79,37.59,318.14,57s1.07,40.17,11.92,56.28c7.77,11.54,20.16,18.92,31.35,27.2s22.11,18.86,24.34,32.59C388.5,190,377.45,205.65,367.92,219.9Z"/><path class="cls-4" d="M391.94,178.8c-3.15,10.08-10.89,18-19.12,24.66s-17.25,12.34-24.45,20.06c-5.12,5.48-9.3,12.29-10.81,19.54-.08.39-.16.79-.22,1.18l-5.09,0-11.8.08c-5.42,0-11.23.07-17.37.09-23.88.12-52.9.2-84.71.23H196.93a19.77,19.77,0,0,0,2.2-2.1,27.53,27.53,0,0,0,4.46-6.83c2.85-6.15,4.33-13,8.42-18.44s12.28-8.72,17.69-4.64c2.3,1.73,3.68,4.47,6,6.11,3.86,2.7,9.4,1.65,13.15-1.19s6.14-7.09,8.41-11.21q8.08-14.65,16.18-29.32c1.59-2.88,3.22-5.81,5.67-8s5.91-3.54,9.07-2.63c3.87,1.11,6.12,5.12,7.44,8.93s2.21,8,5,10.91,7.42,4.19,11.59,3.64a25.4,25.4,0,0,0,11.42-5c6.7-4.87,11.92-11.43,17.32-17.69s11.22-12.45,18.6-16.18,16.69-4.62,23.76-.32C392.33,156.2,395.08,168.72,391.94,178.8Z"/><g class="cls-5"><path class="cls-6" d="M287.14,177.23c.09,0,.15.26.18.73,0,.24,0,.53,0,.88v.55q0,.3,0,.63c0,.45-.06.95-.1,1.49s-.11,1.13-.18,1.76-.18,1.3-.28,2-.25,1.46-.4,2.25l-.11.59c0,.21-.09.41-.13.61-.09.41-.19.83-.28,1.26s-.21.86-.32,1.3-.22.89-.35,1.34l-.4,1.39c-.06.23-.13.47-.2.7l-.23.72c-.16.47-.31,1-.47,1.45s-.35,1-.53,1.48-.37,1-.57,1.51-.38,1-.6,1.54l-.66,1.55c-.23.52-.47,1-.71,1.56-1,2.1-2.07,4.23-3.3,6.36s-2.53,4.13-3.87,6l-1,1.39-1,1.34c-.33.45-.69.87-1,1.29s-.67.85-1,1.25l-1,1.19c-.34.39-.69.76-1,1.13l-.5.56-.51.53c-.34.35-.68.69-1,1l-1,1c-.33.32-.64.63-1,.93l-.95.86-.46.42-.46.39c-.61.52-1.19,1-1.76,1.47s-1.09.87-1.61,1.24-1,.73-1.43,1-.87.58-1.24.82l-.54.34-.48.28c-.3.17-.56.31-.77.41-.43.21-.68.28-.73.21s.09-.29.42-.64c.16-.17.36-.38.61-.61l.41-.37L255,234q.48-.47,1.08-1l1.28-1.19c.46-.42.93-.89,1.44-1.38s1-1,1.59-1.57l.43-.41.42-.44.87-.91c.3-.3.59-.63.89-.95s.61-.66.91-1l.93-1.05.47-.54.47-.56c.31-.37.64-.75.95-1.14s.64-.78,1-1.19.64-.82,1-1.23.65-.84,1-1.28l1-1.32.95-1.37c1.26-1.86,2.51-3.82,3.7-5.87s2.27-4.12,3.25-6.13c.24-.51.48-1,.71-1.51l.67-1.49c.23-.49.42-1,.63-1.47s.41-1,.59-1.45l.56-1.42c.18-.47.35-.94.52-1.4l.25-.68c.08-.23.15-.46.23-.68l.45-1.33c.14-.43.28-.87.41-1.29s.27-.83.39-1.25l.35-1.2c0-.2.11-.39.17-.58l.15-.58c.2-.75.41-1.47.57-2.16s.34-1.33.47-1.94l.4-1.69c.11-.53.22-1,.32-1.43l.15-.61.12-.54c.08-.33.15-.61.22-.84C286.93,177.45,287.05,177.22,287.14,177.23Z"/></g><g class="cls-5"><path class="cls-6" d="M371.52,163c.08,0-.1.5-.53,1.32-.21.41-.48.91-.8,1.51l-.53.95-.65,1.06c-.45.74-1,1.57-1.53,2.48-.14.23-.3.45-.45.68l-.48.71-1,1.49L365,174c-.18.27-.37.53-.57.8l-1.21,1.67c-.81,1.15-1.74,2.33-2.7,3.57l-.73.94c-.25.32-.51.63-.77.94-.52.64-1.06,1.29-1.61,2l-.41.5-.42.49-.88,1c-.59.66-1.18,1.35-1.8,2L352,190,351,191l-1,1-1,1.06-.53.54c-.18.18-.35.36-.54.53l-2.22,2.13c-.74.73-1.53,1.42-2.32,2.14s-1.58,1.45-2.41,2.15l-2.51,2.15-2.61,2.11c-3.54,2.82-7.33,5.59-11.33,8.25s-8,5-12,7.19l-3,1.58-3,1.46c-1,.5-2,.93-2.93,1.38s-1.91.9-2.87,1.3l-2.83,1.21-.71.28-.69.28-1.39.54-1.36.54-1.36.5-2.65,1-2.58.86-1.26.41-.62.2-.62.18-2.42.72-1.17.34-1.15.3c-1.52.4-3,.79-4.35,1.09l-2,.46-1,.21-.94.19-1.77.34-.83.16-.81.14-2.88.45-1.23.17-1.08.12c-.67.07-1.24.12-1.7.15-.93.07-1.42.06-1.43,0s.45-.26,1.34-.5l1.65-.4,1.06-.23,1.2-.3,2.82-.66.78-.2.82-.21,1.73-.44.91-.24c.31-.07.62-.17.94-.25l2-.55c1.35-.36,2.76-.81,4.25-1.26l1.12-.35c.38-.11.76-.25,1.15-.37L284,230l.6-.2c.21-.06.41-.14.61-.21l1.23-.45c.83-.3,1.67-.59,2.53-.91l2.59-1,1.32-.52,1.33-.55,1.36-.57.68-.28c.23-.1.46-.19.69-.3l2.76-1.24c.94-.4,1.87-.87,2.82-1.32s1.91-.89,2.86-1.39l2.89-1.48,2.91-1.57c3.9-2.16,7.86-4.53,11.81-7.13s7.66-5.33,11.17-8.07l2.59-2.06,2.49-2.09c.83-.67,1.62-1.39,2.41-2.08s1.57-1.37,2.31-2.07,1.49-1.39,2.23-2.06l.53-.52.53-.52,1.05-1,1-1q.51-.51,1-1l1.95-2,1.83-2,.89-1,.43-.47.42-.48,1.65-1.87c.27-.3.54-.6.79-.9l.76-.9c1-1.19,2-2.31,2.82-3.42l1.28-1.59c.2-.25.41-.5.6-.76l.57-.75,1.09-1.42.51-.66c.17-.22.34-.44.49-.65.62-.86,1.2-1.63,1.72-2.33.26-.35.51-.68.73-1l.64-.88c.39-.54.73-1,1-1.36C371.11,163.32,371.44,163,371.52,163Z"/></g><g class="cls-5"><path class="cls-6" d="M220.72,217.81c.09,0,.21.07.35.27a2.59,2.59,0,0,1,.22.36l.12.23.15.27.31.62.37.74c.13.26.29.54.44.83s.33.59.51.91l.13.24.15.25.31.5c.09.17.21.33.33.51l.34.52.38.53.19.27.21.27.42.54.45.54c.15.19.32.36.48.55s.32.36.5.54l.52.54.56.53a25.87,25.87,0,0,0,2.46,2,27.28,27.28,0,0,0,2.72,1.67l.68.35.69.31c.22.11.45.2.68.29a5.52,5.52,0,0,0,.67.27l.66.25.65.22.32.11.32.09.62.18.61.16.59.14.57.12.28.06.27.05c.36.06.71.14,1,.18s.63.11.92.14l.82.11.69.08.3.05.26,0,.42.09c.23.07.35.14.36.24s-.09.19-.31.29a2.94,2.94,0,0,1-.41.16l-.26.09-.3.07-.72.15-.87.1c-.31,0-.65.05-1,.07s-.73,0-1.13,0h-.3l-.31,0-.63,0-.66-.08-.69-.09-.7-.13-.36-.07-.36-.09-.74-.18-.75-.22c-.25-.07-.5-.17-.76-.25s-.52-.18-.77-.29l-.78-.32-.78-.36a23.42,23.42,0,0,1-3.08-1.82,22,22,0,0,1-2.73-2.31l-.6-.61-.56-.63c-.18-.2-.35-.42-.52-.63s-.34-.42-.49-.64l-.46-.63-.41-.64-.2-.31-.19-.32-.35-.62c-.11-.2-.21-.41-.31-.61s-.21-.4-.29-.6l-.26-.58-.12-.29-.1-.28c-.14-.37-.28-.72-.38-1.06s-.2-.66-.27-1-.13-.59-.18-.85-.08-.51-.1-.73,0-.21,0-.31a2.72,2.72,0,0,1,0-.28c0-.17,0-.32,0-.44S220.64,217.83,220.72,217.81Z"/></g><path class="cls-7" d="M1.25,178.8c3.14,10.08,10.89,18,19.12,24.66s17.25,12.34,24.45,20.06c5.12,5.48,9.3,12.29,10.81,19.54.08.39.15.79.22,1.18l5.09,0,11.8.08c5.42,0,11.22.07,17.37.09,23.88.12,52.9.2,84.71.23h21.44a19.86,19.86,0,0,1-2.21-2.1,27.49,27.49,0,0,1-4.45-6.83c-2.86-6.15-4.33-13-8.42-18.44s-12.28-8.72-17.7-4.64c-2.29,1.73-3.67,4.47-6,6.11-3.86,2.7-9.39,1.65-13.14-1.19s-6.14-7.09-8.41-11.21q-8.1-14.65-16.18-29.32c-1.59-2.88-3.22-5.81-5.67-8s-5.91-3.54-9.07-2.63c-3.88,1.11-6.13,5.12-7.44,8.93s-2.21,8-5,10.91-7.43,4.19-11.6,3.64a25.4,25.4,0,0,1-11.42-5C62.85,180,57.62,173.46,52.22,167.2S41,154.75,33.63,151s-16.7-4.62-23.76-.32C.85,156.2-1.89,168.72,1.25,178.8Z"/><g class="cls-5"><path class="cls-6" d="M106.05,177.23c-.09,0-.15.26-.19.73,0,.24,0,.53,0,.88v.55c0,.2,0,.41,0,.63,0,.45,0,.95.09,1.49s.12,1.13.19,1.76.17,1.3.28,2,.25,1.46.4,2.25l.11.59c0,.21.09.41.13.61l.28,1.26c.09.43.21.86.32,1.3s.22.89.35,1.34l.39,1.39.21.7.23.72c.15.47.3,1,.47,1.45s.35,1,.52,1.48.38,1,.57,1.51.39,1,.61,1.54l.66,1.55c.23.52.47,1,.71,1.56,1,2.1,2.07,4.23,3.29,6.36s2.54,4.13,3.87,6l1,1.39,1,1.34c.33.45.68.87,1,1.29s.68.85,1,1.25l1,1.19c.34.39.69.76,1,1.13l.51.56.51.53,1,1,1,1,1,.93,1,.86.47.42.46.39c.61.52,1.18,1,1.75,1.47s1.09.87,1.61,1.24,1,.73,1.44,1,.86.58,1.24.82l.53.34.48.28c.3.17.56.31.78.41.42.21.67.28.73.21s-.1-.29-.42-.64c-.16-.17-.37-.38-.62-.61l-.4-.37-.45-.43c-.33-.31-.69-.64-1.09-1l-1.27-1.19c-.46-.42-.93-.89-1.45-1.38s-1-1-1.59-1.57l-.42-.41L132,228l-.87-.91c-.3-.3-.59-.63-.89-.95l-.92-1-.92-1.05c-.16-.18-.32-.35-.47-.54l-.47-.56-1-1.14-1-1.19c-.33-.39-.64-.82-1-1.23s-.65-.84-1-1.28l-1-1.32c-.31-.46-.63-.91-.95-1.37-1.26-1.86-2.51-3.82-3.71-5.87s-2.26-4.12-3.24-6.13l-.72-1.51-.66-1.49c-.23-.49-.43-1-.63-1.47s-.42-1-.6-1.45l-.56-1.42-.51-1.4-.25-.68c-.08-.23-.16-.46-.23-.68-.16-.45-.31-.89-.45-1.33s-.28-.87-.41-1.29-.28-.83-.39-1.25l-.35-1.2c-.06-.2-.12-.39-.17-.58l-.15-.58c-.2-.75-.41-1.47-.57-2.16s-.34-1.33-.48-1.94l-.39-1.69c-.11-.53-.22-1-.32-1.43l-.15-.61-.12-.54c-.08-.33-.16-.61-.23-.84C106.26,177.45,106.14,177.22,106.05,177.23Z"/></g><g class="cls-5"><path class="cls-6" d="M21.67,163c-.08,0,.1.5.52,1.32.21.41.48.91.81,1.51l.53.95c.2.33.42.68.64,1.06l1.54,2.48c.14.23.29.45.45.68l.47.71,1,1.49.53.79c.18.27.38.53.57.8L30,176.47c.82,1.15,1.75,2.33,2.71,3.57l.73.94c.25.32.51.63.77.94l1.6,2,.41.5c.14.16.29.32.43.49l.87,1c.59.66,1.18,1.35,1.8,2L41.19,190c.33.35.65.71,1,1.06l1,1,1,1.06.53.54c.17.18.35.36.53.53l2.23,2.13c.74.73,1.53,1.42,2.32,2.14s1.57,1.45,2.41,2.15l2.5,2.15,2.62,2.11c3.54,2.82,7.32,5.59,11.32,8.25s8.05,5,12,7.19l3,1.58,3,1.46c1,.5,2,.93,2.92,1.38s1.92.9,2.88,1.3l2.83,1.21.7.28.7.28,1.39.54,1.36.54,1.36.5,2.65,1,2.58.86,1.26.41.62.2.62.18,2.42.72,1.17.34,1.15.3c1.52.4,3,.79,4.34,1.09l2,.46,1,.21.93.19,1.77.34.84.16.8.14,2.89.45,1.23.17,1.08.12c.67.07,1.24.12,1.7.15.92.07,1.41.06,1.43,0s-.45-.26-1.34-.5l-1.66-.4-1.05-.23-1.2-.3-2.82-.66-.79-.2-.81-.21-1.73-.44-.92-.24c-.31-.07-.62-.17-.93-.25l-2-.55c-1.35-.36-2.76-.81-4.24-1.26l-1.13-.35c-.38-.11-.75-.25-1.14-.37l-2.36-.79-.61-.2-.6-.21-1.23-.45c-.83-.3-1.68-.59-2.53-.91l-2.59-1-1.32-.52-1.34-.55-1.35-.57-.68-.28c-.23-.1-.46-.19-.69-.3l-2.77-1.24c-.94-.4-1.86-.87-2.81-1.32s-1.91-.89-2.86-1.39l-2.89-1.48L82,218c-3.89-2.16-7.85-4.53-11.8-7.13S62.5,205.58,59,202.84l-2.59-2.06-2.49-2.09c-.83-.67-1.61-1.39-2.4-2.08s-1.57-1.37-2.31-2.07L47,192.48l-.54-.52-.53-.52-1-1-1-1-1-1-1.94-2c-.63-.66-1.23-1.32-1.83-2l-.89-1c-.15-.16-.3-.31-.44-.47l-.42-.48-1.64-1.87-.8-.9-.75-.9c-1-1.19-2-2.31-2.82-3.42L30,173.85c-.2-.25-.41-.5-.6-.76l-.57-.75-1.09-1.42-.51-.66c-.17-.22-.34-.44-.49-.65L25,167.28l-.74-1c-.22-.32-.43-.61-.63-.88-.39-.54-.73-1-1-1.36C22.08,163.32,21.74,163,21.67,163Z"/></g><g class="cls-5"><path class="cls-6" d="M172.46,217.81c-.09,0-.2.07-.34.27a2.59,2.59,0,0,0-.22.36l-.13.23-.14.27-.31.62-.37.74c-.13.26-.29.54-.44.83s-.33.59-.51.91l-.14.24c0,.09-.09.16-.14.25l-.31.5c-.1.17-.22.33-.33.51l-.35.52-.37.53-.2.27-.2.27-.42.54-.46.54c-.14.19-.31.36-.47.55l-.5.54-.53.54-.55.53a24.81,24.81,0,0,1-2.47,2,25.18,25.18,0,0,1-2.72,1.67l-.68.35-.68.31c-.22.11-.45.2-.68.29a5.52,5.52,0,0,1-.67.27l-.66.25-.65.22-.32.11-.32.09-.63.18-.61.16-.59.14-.57.12a2.3,2.3,0,0,1-.28.06l-.27.05c-.36.06-.7.14-1,.18s-.64.11-.93.14l-.81.11-.7.08-.29.05-.27,0-.41.09c-.23.07-.36.14-.37.24s.1.19.32.29a3.31,3.31,0,0,0,.4.16l.27.09.3.07.72.15.87.1c.31,0,.64.05,1,.07s.73,0,1.13,0h.3l.31,0,.63,0,.66-.08.68-.09.7-.13.36-.07.37-.09c.24-.06.49-.11.73-.18l.76-.22c.25-.07.5-.17.76-.25s.51-.18.77-.29l.78-.32.77-.36a21.5,21.5,0,0,0,5.82-4.13l.59-.61L168,229c.19-.2.36-.42.53-.63s.34-.42.49-.64l.45-.63c.15-.21.28-.43.42-.64l.2-.31.18-.32.36-.62c.11-.2.21-.41.31-.61s.21-.4.29-.6l.26-.58.12-.29.1-.28c.14-.37.27-.72.37-1.06s.21-.66.27-1,.14-.59.19-.85.07-.51.1-.73l0-.31c0-.1,0-.19,0-.28s0-.32,0-.44S172.55,217.83,172.46,217.81Z"/></g><path class="cls-8" d="M304.91,244h0l6.45-62-8.7-.89L297,235.2A7.92,7.92,0,0,0,304.91,244Z"/><path class="cls-9" d="M304.9,244h0a7.39,7.39,0,0,0,7.35-6.62l5.8-55.22-6.69-.15Z"/><path class="cls-9" d="M272.91,244h0a7.4,7.4,0,0,0,7.36-6.62l5.75-54.8-6.78.09Z"/><path class="cls-8" d="M272.92,244h0l6.32-61.33-8.7-.9L265,235.2A7.93,7.93,0,0,0,272.92,244Z"/><path class="cls-10" d="M340.64,244h0a5.29,5.29,0,0,0,5.11-6.66L321,144.62l-6.52,1.84Z"/><path class="cls-11" d="M321,144.62l-6.52,1.84,14.73,54.95a105,105,0,0,0,4.32-9.86Z"/><path class="cls-12" d="M340.64,244h0L314.5,146.46l-8.63,1.39,23.33,87.31A11.83,11.83,0,0,0,340.64,244Z"/><path class="cls-13" d="M314.5,146.46l-8.63,1.39,17.18,64.31a106.61,106.61,0,0,0,6.18-10.75Z"/><g class="cls-1"><ellipse class="cls-14" cx="289.9" cy="166.99" rx="58.67" ry="33.14" transform="translate(62.61 412.48) rotate(-77.15)"/><path class="cls-15" d="M309.33,111.24l-6.42-1.47a19.83,19.83,0,0,1,3.84,1.32l6.43,1.47A18.66,18.66,0,0,0,309.33,111.24Z"/><g class="cls-1"><path class="cls-15" d="M276.89,224.2l6.42,1.47c16.1,3.67,34.9-14.43,43.51-43,9.31-30.87,3.2-62.26-13.64-70.11l-6.43-1.47c16.85,7.86,23,39.25,13.65,70.12C311.78,209.77,293,227.88,276.89,224.2Z"/></g></g><path class="cls-16" d="M276.48,211.47a19.91,19.91,0,0,1-8.39-7.9,39.25,39.25,0,0,1-4.84-13.13,64.91,64.91,0,0,1-.94-16.57,81.28,81.28,0,0,1,3.31-18.2,73.72,73.72,0,0,1,7.13-16.43,48.8,48.8,0,0,1,9.47-11.71,25.7,25.7,0,0,1,10.59-5.94,15.41,15.41,0,0,1,10.5.91,19.91,19.91,0,0,1,8.39,7.9,39.18,39.18,0,0,1,4.85,13.14,65.77,65.77,0,0,1,.94,16.57,81.32,81.32,0,0,1-3.32,18.19A73.26,73.26,0,0,1,307,194.73a48.58,48.58,0,0,1-9.46,11.71,25.73,25.73,0,0,1-10.6,5.94,15.36,15.36,0,0,1-10.5-.91m30.27-100.38c-16.84-7.85-38,10.8-47.35,41.67S256.2,215,273,222.88s38-10.8,47.36-41.67,3.2-62.26-13.65-70.12"/><path class="cls-6" d="M279.92,200.06a14.82,14.82,0,0,1-6.24-5.86,29.52,29.52,0,0,1-3.6-9.78,48.57,48.57,0,0,1-.7-12.32,60.45,60.45,0,0,1,2.47-13.53,55,55,0,0,1,5.29-12.21,36.44,36.44,0,0,1,7.05-8.71,19.12,19.12,0,0,1,7.88-4.42,11.4,11.4,0,0,1,7.8.68,14.78,14.78,0,0,1,6.24,5.87,28.94,28.94,0,0,1,3.6,9.77,48.62,48.62,0,0,1,.7,12.33,60.26,60.26,0,0,1-2.47,13.52,54.76,54.76,0,0,1-5.29,12.21,36.17,36.17,0,0,1-7,8.71,19.12,19.12,0,0,1-7.88,4.42,11.43,11.43,0,0,1-7.81-.68m23.39-77.56a15.41,15.41,0,0,0-10.5-.91,25.7,25.7,0,0,0-10.59,5.94,48.8,48.8,0,0,0-9.47,11.71,73.72,73.72,0,0,0-7.13,16.43,81.28,81.28,0,0,0-3.31,18.2,64.91,64.91,0,0,0,.94,16.57,39.25,39.25,0,0,0,4.84,13.13,19.91,19.91,0,0,0,8.39,7.9,15.36,15.36,0,0,0,10.5.91,25.73,25.73,0,0,0,10.6-5.94A48.58,48.58,0,0,0,307,194.73a73.26,73.26,0,0,0,7.13-16.43,81.32,81.32,0,0,0,3.32-18.19,65.77,65.77,0,0,0-.94-16.57,39.18,39.18,0,0,0-4.85-13.14,19.91,19.91,0,0,0-8.39-7.9"/><path class="cls-16" d="M283.36,188.65a9.73,9.73,0,0,1-4.08-3.83,19.15,19.15,0,0,1-2.36-6.41,31.88,31.88,0,0,1-.46-8.09,39.41,39.41,0,0,1,1.62-8.85,35.56,35.56,0,0,1,3.46-8,23.58,23.58,0,0,1,4.62-5.71,12.51,12.51,0,0,1,5.16-2.9,7.52,7.52,0,0,1,5.11.45,9.75,9.75,0,0,1,4.09,3.83,19.2,19.2,0,0,1,2.35,6.42,31.79,31.79,0,0,1,.47,8.08,40,40,0,0,1-1.62,8.85,35.81,35.81,0,0,1-3.46,8,23.81,23.81,0,0,1-4.62,5.71,12.6,12.6,0,0,1-5.17,2.9,7.47,7.47,0,0,1-5.11-.45m16.51-54.74a11.4,11.4,0,0,0-7.8-.68,19.12,19.12,0,0,0-7.88,4.42,36.44,36.44,0,0,0-7.05,8.71,55,55,0,0,0-5.29,12.21,60.45,60.45,0,0,0-2.47,13.53,48.57,48.57,0,0,0,.7,12.32,29.52,29.52,0,0,0,3.6,9.78,14.82,14.82,0,0,0,6.24,5.86,11.43,11.43,0,0,0,7.81.68,19.12,19.12,0,0,0,7.88-4.42,36.17,36.17,0,0,0,7-8.71,54.76,54.76,0,0,0,5.29-12.21,60.26,60.26,0,0,0,2.47-13.52,48.62,48.62,0,0,0-.7-12.33,28.94,28.94,0,0,0-3.6-9.77,14.78,14.78,0,0,0-6.24-5.87"/><path class="cls-6" d="M286.81,177.24a4.56,4.56,0,0,1-1.94-1.8,9.19,9.19,0,0,1-1.11-3.05,15.07,15.07,0,0,1-.23-3.84,19,19,0,0,1,.77-4.17,17,17,0,0,1,1.63-3.78,11.62,11.62,0,0,1,2.2-2.71,5.93,5.93,0,0,1,2.45-1.38,3.57,3.57,0,0,1,2.41.22,4.66,4.66,0,0,1,1.93,1.8,9.06,9.06,0,0,1,1.12,3.05,15.08,15.08,0,0,1,.22,3.84,19,19,0,0,1-.77,4.17,16.51,16.51,0,0,1-1.63,3.78,11,11,0,0,1-2.19,2.71,6,6,0,0,1-2.46,1.38,3.54,3.54,0,0,1-2.4-.22m9.62-31.92a7.52,7.52,0,0,0-5.11-.45,12.51,12.51,0,0,0-5.16,2.9,23.58,23.58,0,0,0-4.62,5.71,35.56,35.56,0,0,0-3.46,8,39.41,39.41,0,0,0-1.62,8.85,31.88,31.88,0,0,0,.46,8.09,19.15,19.15,0,0,0,2.36,6.41,9.73,9.73,0,0,0,4.08,3.83,7.47,7.47,0,0,0,5.11.45,12.6,12.6,0,0,0,5.17-2.9,23.81,23.81,0,0,0,4.62-5.71,35.81,35.81,0,0,0,3.46-8,40,40,0,0,0,1.62-8.85,31.79,31.79,0,0,0-.47-8.08,19.2,19.2,0,0,0-2.35-6.42,9.75,9.75,0,0,0-4.09-3.83"/><path class="cls-16" d="M293,156.73a4.66,4.66,0,0,1,1.93,1.8,9.06,9.06,0,0,1,1.12,3.05,15.08,15.08,0,0,1,.22,3.84,19,19,0,0,1-.77,4.17,16.51,16.51,0,0,1-1.63,3.78,11,11,0,0,1-2.19,2.71,6,6,0,0,1-2.46,1.38,3.54,3.54,0,0,1-2.4-.22,4.56,4.56,0,0,1-1.94-1.8,9.19,9.19,0,0,1-1.11-3.05,15.07,15.07,0,0,1-.23-3.84,19,19,0,0,1,.77-4.17,17,17,0,0,1,1.63-3.78,11.62,11.62,0,0,1,2.2-2.71,5.93,5.93,0,0,1,2.45-1.38,3.57,3.57,0,0,1,2.41.22"/><path class="cls-17" d="M279.19,224.58l41.31-81.13.18.11-.24.49-34.75,80.1A20.46,20.46,0,0,1,279.19,224.58Z"/><path class="cls-17" d="M260.49,209.25c8.47-13.57,26.76-42.59,26.76-42.59l-.11.54-24.3,46.29A37.39,37.39,0,0,1,260.49,209.25Z"/><polygon class="cls-18" points="198.06 152.82 195.45 152.26 199.52 147.97 212.78 150.83 208.71 155.13 198.99 153.02 200.87 150.53 198.06 152.82"/><polygon class="cls-19" points="210.84 145.24 212.78 150.83 199.52 147.97 197.59 142.37 210.84 145.24"/><path class="cls-20" d="M285.4,167.34a.8.8,0,0,0,.17-1.58l-86.09-18.62a.8.8,0,0,0-.34,1.56l86.09,18.62A.52.52,0,0,0,285.4,167.34Z"/><rect class="cls-21" x="278.28" y="164.81" width="7.97" height="2.11" rx="0.96" transform="translate(523.08 387.65) rotate(-167.79)"/><polygon class="cls-21" points="286.13 166.35 287.25 166.66 287.14 167.2 285.99 167.02 286.13 166.35"/><polygon class="cls-18" points="237.58 108.33 235.19 107.15 240.19 103.98 252.34 110 247.34 113.17 238.44 108.76 240.87 106.8 237.58 108.33"/><path class="cls-19" d="M243.1,99.78l2.6,4.85-.39-3.76,6.52,3.24.51,5.89-12.15-6-.51-5.89Z"/><path class="cls-22" d="M318.73,143.77a.8.8,0,0,0,.55-1.49l-78.93-39.11a.8.8,0,0,0-.71,1.43l78.93,39.11Z"/><rect class="cls-21" x="312.06" y="140.51" width="7.97" height="2.11" rx="0.96" transform="translate(536.37 408.73) rotate(-153.64)"/><polygon class="cls-21" points="319.68 142.99 320.68 143.56 320.44 144.05 319.38 143.6 319.68 142.99"/><polygon class="cls-18" points="244.57 198.78 249.87 196.15 261.33 203.4 256.03 206.03 244.57 198.78"/><polygon class="cls-19" points="261.44 197.49 261.33 203.4 249.87 196.15 249.98 190.23 261.44 197.49"/><path class="cls-20" d="M324.12,243.93a.8.8,0,0,0,.68-.37.79.79,0,0,0-.25-1.1l-74.44-47.1a.79.79,0,0,0-1.1.25.81.81,0,0,0,.25,1.1l74.44,47.1A.81.81,0,0,0,324.12,243.93Z"/><rect class="cls-21" x="317.43" y="240.36" width="7.97" height="2.11" rx="0.96" transform="translate(463.94 617.28) rotate(-147.68)"/><polygon class="cls-21" points="324.82 243.95 324.51 243.78 324.88 243.21 325.92 243.95 324.82 243.95"/><polygon class="cls-18" points="173.28 197.24 171.08 195.73 176.48 193.31 187.65 201 182.25 203.42 174.07 197.79 176.75 196.19 173.28 197.24"/><path class="cls-19" d="M180,189.57l1.88,5.17c.05-1.26.09-2.52.14-3.78l6,4.14-.34,5.9-11.17-7.69.34-5.91Z"/><path class="cls-20" d="M248.85,244a.79.79,0,0,0,.65-.34.8.8,0,0,0-.2-1.11l-72.54-50a.8.8,0,1,0-.91,1.31l72.54,50A.78.78,0,0,0,248.85,244Z"/><rect class="cls-21" x="242.22" y="240.28" width="7.97" height="2.11" rx="0.96" transform="translate(312.05 579.74) rotate(-145.44)"/><polygon class="cls-21" points="249.43 243.95 249.21 243.82 249.59 243.26 250.49 243.95 249.43 243.95"/><polygon class="cls-18" points="185.25 194.56 190.74 192.34 201.61 200.44 196.13 202.66 185.25 194.56"/><path class="cls-19" d="M194.36,188.73l1.69,5.23.28-3.76,5.84,4.35-.56,5.89-10.87-8.1.55-5.89Z"/><path class="cls-22" d="M258.68,244l-68.59-51.1a.8.8,0,1,1,.95-1.28L261.35,244Z"/><path class="cls-21" d="M258.25,244,255.64,242a1.06,1.06,0,0,1,1.27-1.69l4.69,3.5a.93.93,0,0,1,.15.13Z"/><polygon class="cls-18" points="204.37 164.13 210.24 164.91 215.7 177.32 209.83 176.54 204.37 164.13"/><path class="cls-19" d="M215.16,163.55l-1.11,5.39c.7-1,1.4-2.09,2.11-3.13l2.93,6.66-3.39,4.85-5.46-12.41,3.39-4.85Z"/><path class="cls-20" d="M244.13,244,209.42,165a.8.8,0,0,1,1.46-.64l35,79.56Z"/><path class="cls-21" d="M243.85,244l-1.68-3.81a1.06,1.06,0,0,1,.54-1.39h0a1.07,1.07,0,0,1,1.4.54l2,4.66Z"/><path class="cls-23" d="M43.94,122.37c-.25-.72,3.22-1.29,3.41-2s-4.39-.77-4.55-1.41c-.31-1.17,5-.25,4.9-.79s-5.54-1.77-5-2.71,5.5,1.85,5.65,1.22-4.8-2.19-4.71-3.59c0-.74,8.13,3.72,9.06,3.32s-1-3.92-.26-4.44,2.89,7.14,3.41,7.39,11.43,6.49,15.31,7.48c.48-1.3,6-9.36,6.46-10.59,2.18,1.55,4.41,1.76,6.66,3.18-1.63,4.08-9.11,15.42-10.25,15.94-3.45,1.56-16.83-9.53-19.49-11.43s-4.2-1.28-6-1.88S44.19,123.08,43.94,122.37Z"/><path class="cls-24" d="M118.13,92.78a11.45,11.45,0,0,0-12.68-7.57A12,12,0,0,0,98,79.87C92,78.59,83.9,81,84.12,87.28c-2.32,4.25-2.41,10.33,1.14,13.57-1.23,5.71,4.12,11.24,11.09,11a12.29,12.29,0,0,0,11.63,6c1.11-.13,2.79-.4,3.07-.34-.35-.06,7.37,5.86,13.92-3.25C131.66,105,127,93.77,118.13,92.78Z"/><path class="cls-23" d="M99.36,144.2c.2.08-2.63,3.73-5.38,6.3a23.57,23.57,0,0,0-5,9.68c-1.08,5.46-.18,32.47-1.13,34.39-8.14,8-14,28-15.7,34.05a6.44,6.44,0,0,1-1.88,3.09h0l.36,6.89,4,3.73s-.9-5.62.9-9.78c0,0,20.51-31.06,21.72-33.43,2.33-6.76,10.8-41.4,10.8-41.4l2-8Z"/><path class="cls-25" d="M65.82,233.93s2.56,3.94,2.78,5.48,1.58,5,3.09,5.25c.34.05,6.21.48,6.17-.25,0-.56-2.16-1.36-3.14-2-1.71-1.18-4.36-10.77-4.36-10.77S65.93,232.7,65.82,233.93Z"/><path class="cls-26" d="M100.22,102s8.58-15.43,10.67-18.72,7.53-16.32,7.72-16.83-3.75-6.68-2.87-6.89,1.86,3.25,2.8,2.83,1.7-2.82,2.24-2.54,1.84.35,2.14.75,2.77,1.05,1.89,2.68-1.9,1.9-2.52,4.91-1.55,13.9-4.74,19.33S107.34,105,107.34,105Z"/><path class="cls-23" d="M116.89,156.17s13.21,28.24,13.29,33.21c.08,4.25-2.31,28.14-1.64,48,0,.72.93,1.68,2.26,2.28l4.34,1.95.49,1.29L123.24,242l-.17-3.38s-4.93-29.75-4.43-38.16c.08-1.32.72-9.24.72-9.24l-14.9-28.76,9.37-12.31Z"/><path class="cls-27" d="M86.61,190.1h0Z"/><path class="cls-28" d="M105.51,110.38c.35-2.18,3.71-7.61,4.24-8.94,0,0-3.89-5-7.06-4.58,0,0-4.25,7-6.66,7.28s-10.92.61-12.41,1.51-7.81,10.61-7.81,10.61,5.68,5.81,8,5.79a23,23,0,0,1,1.7-2.91c.34,1.11,5.63,18.26,5.63,22.14l0,0a11.12,11.12,0,0,0,16-2.06h0a87.29,87.29,0,0,1-.19-10.27C107.33,121.26,108.9,117.16,105.51,110.38Z"/><path class="cls-29" d="M133.06,176.72l-25.93-37.46a25.29,25.29,0,0,1-4.82,1.54,50,50,0,0,1-11.2.48,2,2,0,0,1,0,.37c-.43,3.09-4.52,7.87-5.37,17.24-1,10.64-.38,29.11,0,30.32C102.89,187.12,128.16,181.85,133.06,176.72Z"/><path class="cls-23" d="M91.66,97.9a39.43,39.43,0,0,1,.73,6.85c-.19,1.93.69,8.18,4.63,8.2s.75-7.94.38-9.84a73.09,73.09,0,0,1-.46-7.77Z"/><path class="cls-27" d="M97,98.29c-.06-1.61-.08-3-.08-3L91.66,97.9s.18,1,.37,2.28A4.51,4.51,0,0,0,97,98.29Z"/><path class="cls-23" d="M91.35,84.07a6.77,6.77,0,0,0-3.45,3.12c-1.22,2.35-1.67,9,3.18,11.54s8.09-2.09,7.82-6.29S97.32,82.73,91.35,84.07Z"/><path class="cls-23" d="M99.85,91c-.31,1-1,1.76-1.63,1.58s-.81-1.18-.49-2.23,1-1.76,1.63-1.58S100.17,90,99.85,91Z"/><path class="cls-23" d="M88.29,93c.42,1,.2,2.16-.49,2.47s-1.6-.31-2-1.36-.2-2.17.5-2.47S87.87,92,88.29,93Z"/><path class="cls-25" d="M123.2,244.39h15.65c.58,0,.72-.52.52-.8-.41-.6-2.24-1-4.29-2-3.6.38-11.44-2.08-12-2.91C122.75,240.35,122.88,244.32,123.2,244.39Z"/><path class="cls-6" d="M92,94.86l3.49-.32A1.55,1.55,0,0,1,94,96.08C92.08,96.31,92,94.86,92,94.86Z"/><path class="cls-30" d="M49.5,11.09c11,4.4,22,9,32.92,13.69,3.17,1.36,6.33,2.75,9.5,4.13,3,1.31,6,2.53,8.94,4.07a41.46,41.46,0,0,1,14.85,13.43,43.3,43.3,0,0,1,4.58,9.06c.69,1.88,1.08,3.84,2.3,5.48a12.59,12.59,0,0,0,4.72,3.62,47.9,47.9,0,0,1,4.9,2.87,41.39,41.39,0,0,1,13.37,14.91c3.2,6.05,4.5,12.85,6.19,19.42,3.15,12.22,6.16,24.48,8.9,36.79l.6,2.68c-3.93-11.61-7.65-23.29-11.25-35q-1.54-5.07-3.07-10.15a68.39,68.39,0,0,0-3.47-9.84,39.06,39.06,0,0,0-13.82-15.71c-3.31-2.14-7.26-3.38-9.84-6.5a18.31,18.31,0,0,1-3.06-6.44,36.78,36.78,0,0,0-4.13-8.68,38.84,38.84,0,0,0-13-12.56c-1.14-.66-2.31-1.27-3.5-1.85L86.89,30C75.17,24.32,63.51,18.49,52,12.4Z"/><polygon class="cls-31" points="161.36 141.18 50.15 11.32 50.41 11.45 161.3 140.96 161.36 141.18"/><path class="cls-26" d="M122.1,59.35c-1,.07-2.65,1.38-2.27,1.72s2.43-.6,2.43-.6c-1.86,1.55-2,2.06-1.39,2.17a10.51,10.51,0,0,0,2.24-1c-.87,1.58-.87,2.2-.31,2.15.27,0,1.28-1.52,1.28-1.52-.19,1.27-.12,1.85.33,1.24.25-.33.76-1.11.54-1.69a.55.55,0,0,0-.34-.35c-.14-.33-.2-.51-.68-.6-.22-.52-.37-.64-1-.9A1,1,0,0,0,122.1,59.35Z"/></g></g></g></svg>