<svg xmlns="http://www.w3.org/2000/svg" viewBox="0 0 30.53 45.58"><defs><style>.cls-1{fill:#363b54;}</style></defs><g id="Layer_2" data-name="Layer 2"><g id="Layer_1-2" data-name="Layer 1"><path class="cls-1" d="M25.85,4.26A15.2,15.2,0,0,0,14.65,0,15.39,15.39,0,0,0,0,14.33a15.18,15.18,0,0,0,2.54,9.41A19.82,19.82,0,0,1,6,34.74v.58a.94.94,0,0,0,.94.94H23.57a1,1,0,0,0,.95-.94v-.58a19.46,19.46,0,0,1,3.4-10.94A15.27,15.27,0,0,0,25.85,4.26ZM11.61,18.83h-.93A.87.87,0,0,1,9.82,18V17.9a.87.87,0,0,1,.86-.87h.07a.86.86,0,0,1,.86.87Zm1.26,1.26h5.46V34.37H12.87Zm13.49,2.65a21.37,21.37,0,0,0-3.73,11.63h-3V20.09h.93A2.13,2.13,0,0,0,22.65,18V17.9a2.14,2.14,0,0,0-2.13-2.13h-.06a2.14,2.14,0,0,0-2.13,2.13v.93H12.87V17.9a2.13,2.13,0,0,0-2.12-2.13h-.07A2.13,2.13,0,0,0,8.56,17.9V18a2.12,2.12,0,0,0,2.12,2.13h.93V34.37H7.9A21.66,21.66,0,0,0,4.14,22.69a13.34,13.34,0,0,1-2.23-8.24A13.49,13.49,0,0,1,14.73,1.9,13.38,13.38,0,0,1,26.36,22.74Zm-6.77-3.91V17.9a.87.87,0,0,1,.87-.87h.06a.87.87,0,0,1,.87.87V18a.87.87,0,0,1-.87.87Z"/><path class="cls-1" d="M23.07,37.51H7.46a.95.95,0,0,0,0,1.89H23.07a.95.95,0,1,0,0-1.89Z"/><path class="cls-1" d="M21.35,40.66H9.18a.95.95,0,0,0,0,1.89H21.35a.95.95,0,1,0,0-1.89Z"/><path class="cls-1" d="M21.35,43.79l-1.52,0-1.52,0-3,0-3,0-1.52,0-1.52,0a.09.09,0,0,0-.07,0,.09.09,0,0,0,0,.13l0,0a9.36,9.36,0,0,0,3,1.26,13.22,13.22,0,0,0,3,.35,13.75,13.75,0,0,0,3-.34,9.4,9.4,0,0,0,3-1.27l0,0a.08.08,0,0,0,0-.07A.09.09,0,0,0,21.35,43.79Z"/></g></g></svg>