<svg xmlns="http://www.w3.org/2000/svg" viewBox="0 0 9.36 20.14"><defs><style>.cls-1{fill:#fff;fill-rule:evenodd;}</style></defs><g id="Layer_2" data-name="Layer 2"><g id="Layer_1-2" data-name="Layer 1"><path class="cls-1" d="M2.06,10.15v9.73a.26.26,0,0,0,.25.26H5.93a.26.26,0,0,0,.25-.26V10H8.8a.25.25,0,0,0,.26-.23l.25-3a.26.26,0,0,0-.25-.28H6.18V4.39a.9.9,0,0,1,.9-.9h2a.26.26,0,0,0,.26-.26v-3A.26.26,0,0,0,9.1,0H5.69A3.63,3.63,0,0,0,2.06,3.63V6.5H.25A.25.25,0,0,0,0,6.75v3A.25.25,0,0,0,.25,10H2.06Z"/></g></g></svg>