<svg xmlns="http://www.w3.org/2000/svg" viewBox="0 0 21.01 21.01"><defs><style>.cls-1{fill:#FFF;}</style></defs><g id="Layer_2" data-name="Layer 2"><g id="Layer_1-2" data-name="Layer 1"><path class="cls-1" d="M16,3.87A1.24,1.24,0,1,0,17.26,5.1,1.24,1.24,0,0,0,16,3.87ZM10.54,5.45a5.19,5.19,0,1,0,5.19,5.19A5.2,5.2,0,0,0,10.54,5.45Zm0,8.51a3.32,3.32,0,1,1,3.32-3.32A3.32,3.32,0,0,1,10.54,14ZM21,6.33A6.33,6.33,0,0,0,14.68,0H6.33A6.32,6.32,0,0,0,0,6.33v8.35A6.33,6.33,0,0,0,6.33,21h8.35A6.34,6.34,0,0,0,21,14.68Zm-2,8.35A4.34,4.34,0,0,1,14.68,19H6.33A4.34,4.34,0,0,1,2,14.68V6.33A4.35,4.35,0,0,1,6.33,2h8.35A4.34,4.34,0,0,1,19,6.33Z"/></g></g></svg>