<svg xmlns="http://www.w3.org/2000/svg" viewBox="0 0 291.8 222.03"><defs><style>.cls-1{fill:#fff8f8;}.cls-2{fill:#3b364d;}.cls-3{fill:#ffe5e2;}.cls-4{fill:#aab2c8;}.cls-5{fill:#e0e7ff;}.cls-25,.cls-26,.cls-6{fill:none;stroke-miterlimit:10;}.cls-6{stroke:#aab2c8;}.cls-7{fill:#fff;}.cls-18,.cls-7{opacity:0.54;}.cls-8{fill:#773c4d;}.cls-9{fill:#965363;}.cls-10{fill:#61648a;}.cls-11{fill:#edf1fc;}.cls-12{fill:#ffc55a;}.cls-13{fill:#af2f48;}.cls-14{fill:#f49947;}.cls-15{fill:#f27c49;}.cls-16{fill:#d35473;}.cls-17{fill:#31344c;}.cls-18{fill:#232433;}.cls-19,.cls-22{fill:#383952;}.cls-20{fill:#6d3744;}.cls-21{fill:#542633;}.cls-22,.cls-32{opacity:0.36;}.cls-23{fill:#f4b8ab;}.cls-24{fill:#c3c9f4;}.cls-25{stroke:#191918;stroke-width:2px;}.cls-26{stroke:#e56a85;stroke-linecap:round;}.cls-27{fill:#dd6595;opacity:0.53;}.cls-28{fill:#7c9e1e;}.cls-29{fill:#b7ac15;}.cls-30{fill:#a88f14;}.cls-31,.cls-32{fill:#426313;}.cls-33{fill:#3a3852;}</style></defs><g id="Layer_2" data-name="Layer 2"><g id="Layer_1-2" data-name="Layer 1"><path class="cls-1" d="M272.08,212.4c37.89-38.75,21.49-98.87-51.92-112.58S130.91,4,64.15,21.09-28,164.39,40.55,212.4Z"/><rect class="cls-2" x="267.41" y="85.54" width="4.67" height="116.91" transform="translate(539.49 288) rotate(180)"/><path class="cls-3" d="M95.9,212.4c0,1.69-14.85,3.06-33.18,3.06s-33.18-1.37-33.18-3.06,14.86-3.07,33.18-3.07S95.9,210.7,95.9,212.4Z"/><ellipse class="cls-3" cx="185.77" cy="215.68" rx="64.49" ry="6.35"/><rect class="cls-4" x="1.95" width="105.27" height="93.32" rx="7.66"/><rect class="cls-5" x="9.09" y="7.71" width="90.99" height="77.89"/><line class="cls-6" x1="54.59" y1="7.71" x2="54.59" y2="85.6"/><line class="cls-6" x1="100.08" y1="46.66" x2="9.09" y2="46.66"/><polygon class="cls-7" points="48.9 7.71 18.38 85.55 31.88 85.55 62.72 7.71 48.9 7.71"/><polygon class="cls-7" points="72.5 7.71 41.98 85.55 55.48 85.55 86.32 7.71 72.5 7.71"/><rect class="cls-8" x="199.86" y="81.37" width="89.6" height="8.36"/><rect class="cls-9" x="232.31" y="81.37" width="57.15" height="8.36"/><path class="cls-10" d="M219.26,67.94H265a0,0,0,0,1,0,0V81.37a0,0,0,0,1,0,0H219.26a2.88,2.88,0,0,1-2.88-2.88V70.83A2.88,2.88,0,0,1,219.26,67.94Z"/><rect class="cls-11" x="219.9" y="70.78" width="45.84" height="7.75"/><rect class="cls-5" x="219.79" y="70.78" width="32.72" height="7.75"/><path class="cls-12" d="M211.75,54.52h45.71a0,0,0,0,1,0,0V67.94a0,0,0,0,1,0,0H211.75a2.88,2.88,0,0,1-2.88-2.88V57.4A2.88,2.88,0,0,1,211.75,54.52Z"/><rect class="cls-11" x="212.29" y="57.36" width="45.84" height="7.75"/><rect class="cls-5" x="212.29" y="57.36" width="32.95" height="7.75"/><path class="cls-13" d="M222.12,41.1h45.71a0,0,0,0,1,0,0V54.52a0,0,0,0,1,0,0H222.12a2.88,2.88,0,0,1-2.88-2.88V44A2.88,2.88,0,0,1,222.12,41.1Z"/><rect class="cls-11" x="222.8" y="43.94" width="45.84" height="7.75"/><rect class="cls-5" x="222.65" y="43.94" width="30.9" height="7.75"/><path class="cls-12" d="M216.92,150.49c.06,10-.88,19.5-3.46,28.07h0c-7.23,24-27.34,40.51-74.36,39-63.82-2.08-75.41-61.42-80.77-116.91-4.34-45,9.19-78.15,49.82-89.06A127.21,127.21,0,0,1,141,7.71C198.43,7.71,216.68,112.52,216.92,150.49Z"/><path class="cls-14" d="M213.45,178.57c-7.23,24-27.34,40.51-74.36,39-63.82-2.08-75.41-61.42-80.77-116.91-4.34-45,9.19-78.15,49.82-89.06-34.89,21.27-43.56,60-29.3,119s50.23,76.09,73.53,76.12S204.9,199.11,213.45,178.57Z"/><path class="cls-14" d="M124.82,63.36c-45.52,8.1-25.66,73.12-15.6,91.33s14.35,39.77,37.6,40.73,53-9.58,55.84-17.25-10.28-47.63-10.28-47.63S190.56,90.1,178,79.48,139.94,60.66,124.82,63.36Z"/><path class="cls-15" d="M185.77,173c-8.31,15.54-36.66,21-46.37,18.55-5.72-1.45-12.58-6.64-18.81-14.1-4-7-7.18-15.19-11.37-22.78a88,88,0,0,1-5.15-11.59c-3.47-16.7-3.37-36.53,3.15-43.28,8.85-9.16,17.45-15.62,18.06-21.29.48-4.46-4.57-10.33-3.56-14.51,1-.25,2-.47,3.1-.66,12.45-2.22,31.89,3,45.4,10.77,1.3,4.93,1.42,11.53,4.47,13.67,4.71,3.27,12,23.81,13.82,33.46S185.77,173,185.77,173Z"/><path class="cls-13" d="M247.6,197.68c.37,5.85,17.29-1.62,19.53-4.85,0,0-9.27,26.63-14.09,26.63s-18-13.87-18-13.87l1.58-7.91Z"/><path class="cls-16" d="M253,219.46c-5.25,2.25,7.87-30.87,14.09-30.12S259.82,216.55,253,219.46Z"/><path class="cls-17" d="M249.61,159.33c-.34,17.12-4.79,38.35-4.79,38.35h-11a159.92,159.92,0,0,1-9.89-29A67.16,67.16,0,0,1,222.43,158s-17,5.14-33.41,2.06a193.23,193.23,0,0,1-21.29-5.56c-9.42-2.94-16.81-5.74-16.81-5.74l.56-.71,12-15.16L195.72,128l3.78-.57,22.93,7.11C242.77,136.74,250,142.21,249.61,159.33Z"/><path class="cls-18" d="M224,168.69A67.16,67.16,0,0,1,222.43,158s-17,5.14-33.41,2.06a193.23,193.23,0,0,1-21.29-5.56L151.48,148l-1.42-.56-2.69-11.21,34.69-12.13L195.72,128l22.94,6.53c-5.54,10,5.62,21.75,8.07,25.29s9.41-2.18,13.83,0S227.48,161,224,168.69Z"/><path class="cls-13" d="M230.44,207.26c5,11,12.51,16.18,16.49,14.44l-1.74-18.17L238,200.42Z"/><path class="cls-16" d="M246.93,221.7c-8.87,1.48-7.22-15.69-6.72-24s7.47-7.59,8.21-1.12S252.9,220.7,246.93,221.7Z"/><path class="cls-19" d="M238,200.41l-7.53,6.85c-30.81-8.9-48.95-37-48.95-37-17.12,19.85-36.3,24.31-51.72,0,0,0,1-10.81,13.48-19.14a45.76,45.76,0,0,1,8.67-4.48c13.38-5.3,31.17-6.33,42.14-6.39a20.23,20.23,0,0,1,16.63,8.59c6.46,9.12,12.6,20.43,17.43,30.13C234.05,190.92,238,200.41,238,200.41Z"/><path class="cls-18" d="M238,200.41l-7.53,6.85c-30.81-8.9-48.95-37-48.95-37-17.12,19.85-36.3,24.31-51.72,0,0,0,1-10.81,13.48-19.14l12.92-2.39c-15.08,29.6,21.16,22.7,27.7,17.3S196.58,155.25,199.5,155,187,166,197.88,179s35.93,21,30.24,0C234.05,190.92,238,200.41,238,200.41Z"/><path class="cls-20" d="M162.87,53h-.46s-4.56,17.48-12.35,24a10,10,0,0,1-4.51,2.29c-10.5,1.94-19.65-10-21.38-18.23-1-4.59.73-7.41,2.43-9a8.6,8.6,0,0,1,2.65-1.75s.69-12.95,5.2-12.71c4.34.22,3.61,1.94,3.55,2.07.28-.37,9.72-12.92,16.21-11.55s2,11.09,2,11.09,8.32-8.43,11.09-3.58-5.42,10.74-5.42,10.74,7-.11,7.74,2.43S169.23,53.76,162.87,53Z"/><path class="cls-21" d="M150.06,77a10,10,0,0,1-4.51,2.29c-10.5,1.94-19.65-10-21.38-18.23-1-4.59.73-7.41,2.43-9,1.56,2,3.65,6.1,8.42.94h2.22Z"/><path class="cls-10" d="M178,129l-48,44.45a48.44,48.44,0,0,1-6.11-6.56h0a47.39,47.39,0,0,1-7.26-13.38,59.15,59.15,0,0,1-2.69-10.83c-1.31-8.42-1.13-17.23-.6-26,1.25-20.49,7.44-34.16,32-34.51,0,0,11.28-3.15,19.62,1.35,6.56,3.52,10.83,29.63,12.36,40.6C177.75,127.09,178,129,178,129Z"/><path class="cls-22" d="M167.74,108.71c-25.24,9.47-35.69-8.89-35.69-8.89l-8.17,29.34,17.47,5.38,30.41-3.16Z"/><path class="cls-22" d="M178,129l-48,44.45a48.44,48.44,0,0,1-6.11-6.56c8.34-.63,26.26-20.58,21.55-21.62-4.21-.93-18.71,8.94-28.82,8.24a59.15,59.15,0,0,1-2.69-10.83l15.41-13.48,48-5C177.75,127.09,178,129,178,129Z"/><path class="cls-23" d="M150.93,123.05c5.63-3.8,12.18-.63,14.51,1.06s0,6.13,0,6.13a24.67,24.67,0,0,0-3.38-1.69c-.85-.21-4.93,3-13,1.69S150.93,123.05,150.93,123.05Z"/><path class="cls-10" d="M118,96.49c11-8.24,17.3-1,16.77,13.24L134.25,124s14.09-4.49,17.53-4.49c0,0,.3,9.74,0,13.23,0,0-17,16.49-28.27,17.74s-9-21-10-31.22S114.18,99.35,118,96.49Z"/><path class="cls-24" d="M163.49,130.9,171.87,97a7.75,7.75,0,0,1,7.52-5.89h48.08a4.84,4.84,0,0,1,4.69,6l-9.7,35.48Z"/><path class="cls-5" d="M166.86,130.9,175.24,97a7.74,7.74,0,0,1,7.52-5.89h48.08a4.84,4.84,0,0,1,4.69,6l-9.71,35.48Z"/><path class="cls-24" d="M211.93,134.29H150.77a1.7,1.7,0,0,1-1.7-1.7h0a1.7,1.7,0,0,1,1.7-1.69h61.16a1.69,1.69,0,0,1,1.69,1.69h0A1.69,1.69,0,0,1,211.93,134.29Z"/><path class="cls-5" d="M226.35,134.29H165.19a1.7,1.7,0,0,1-1.7-1.7h0a1.7,1.7,0,0,1,1.7-1.69h61.16a1.69,1.69,0,0,1,1.69,1.69h0A1.69,1.69,0,0,1,226.35,134.29Z"/><path class="cls-24" d="M205.9,111.74c-.81,4.41-2.81,7.74-4.47,7.44s-2.35-4.13-1.54-8.54,2.8-7.75,4.46-7.44S206.71,107.32,205.9,111.74Z"/><path class="cls-23" d="M165.61,55.83c1.07,15.63-1.42,22.55-10.29,23.44v3.64a4.89,4.89,0,0,1-4.89,4.89h0a4.89,4.89,0,0,1-4.88-4.89V79.27s-7.1-3-8.52-7.46,0-.71,0-.71L136.39,53h29.46Z"/><path class="cls-23" d="M137.47,64.3c-2.23-4.07-4.86-2.37-5.38,0s4.2,8.12,5.38,6.09S137.47,64.3,137.47,64.3Z"/><path class="cls-20" d="M132.58,51c4.75,5.77,18.23,8.78,23.11,7.39s-2.06-5.89-2.06-5.89,9.05,6.24,13.19,4.16-7-7.16-7-7.16Z"/><path class="cls-25" d="M148.73,63.36c0,.83-.15,1.51-.34,1.51s-.33-.68-.33-1.51.15-1.52.33-1.52S148.73,62.52,148.73,63.36Z"/><path class="cls-25" d="M158.33,63.36c0,.83-.15,1.51-.34,1.51s-.33-.68-.33-1.51.15-1.52.33-1.52S158.33,62.52,158.33,63.36Z"/><path class="cls-26" d="M154.46,71.8a13,13,0,0,1-8.16-3.21"/><path class="cls-27" d="M155.32,79.27a80.71,80.71,0,0,1-8.5.21l8.5,3.43Z"/><path class="cls-27" d="M137.24,65.39c-2-2.09-3-1.23-2.84.94s2.75,3.73,3.6,3.11S137.24,65.39,137.24,65.39Z"/><path class="cls-28" d="M59.37,174.21c-8.83-3.24-13.69-2-16.4-5.59,0,0,7.21-1.26,11.18,0Z"/><path class="cls-29" d="M54.15,168.62c-10.73-5.6-13.92-12-16.64-16.36s-4.25-8-5.31-8.34,4.4.76,9.55,5.91,7.27,5.91,11.37,10S60.84,170,61.3,174.21H59.37Z"/><path class="cls-28" d="M57.21,167.11c-5.8-8.9-.6-14-7.58-24.1-8.18-11.82-5.61-23.64-4.39-31.07,0,0-1.82,8.65,5.3,17.05s14.09,11.67,14.7,24.21a71,71,0,0,1-1.82,21H59.37Z"/><path class="cls-29" d="M62.48,174.21c-1.94-8.34,1.85-22.56,2.15-36.65S57.06,113,68.73,99.82c0,0-2.43,2.42.9,12.12s10.76,19.86,7.13,32.89-11.48,23.71-11.42,29.38Z"/><path class="cls-30" d="M65.34,174.21c-1.22-10,9-25.59,17.63-29.08A19.15,19.15,0,0,1,78.27,159c-5.6,6.25-9.77,15.17-9.77,15.17Z"/><path class="cls-31" d="M68.5,174.21c.38-6.65,6.14-9,12-10.69,0,0-7.13,7.18-8.34,10.69Z"/><path class="cls-32" d="M71.27,175c1-5,3.28-6.62,2.86-6.91s-3,3.95-4.3,6.15c0,0-1.72-5.74.86-10.69s5-8.69,5-8.69-8.34,9.64-8.78,14.51a31.27,31.27,0,0,1,.58-11.22c1.44-6.31,5.18-12.36,3.81-19.84s-2.84-15.46-2.84-15.46.62,7.6,1.33,14.19-1.23,10.05-3.13,17.1-.84,17.08-1.66,17S62.93,173,62.93,173s-.87-10.79-2.16-20S59.62,142.51,54,137s-6.33-8.85-6.33-8.85,3.78,7.53,6.93,12.42,4.14,7,4.14,15.69.44,13.48,1.15,14.87-5.32-8.21-10.07-11.47a43.45,43.45,0,0,1-9.06-8.44c-.43-.72,4.6,8.34,8.34,10.79s10.26,10.79,10.26,10.79l-10.69-2.88,12.09,5Z"/><path class="cls-33" d="M80.8,176.89l-5.69,32.77a3.1,3.1,0,0,1-.4,1.09,3.27,3.27,0,0,1-2.85,1.65H51.39a3.31,3.31,0,0,1-3.26-2.78L42.8,176.86A3.3,3.3,0,0,1,46.06,173H77.54A3.31,3.31,0,0,1,80.8,176.89Z"/><path class="cls-18" d="M74.71,210.75a3.27,3.27,0,0,1-2.85,1.65H51.39a3.31,3.31,0,0,1-3.26-2.78L42.8,176.86A3.3,3.3,0,0,1,46.06,173H56.89C46.85,188.61,63.59,206.72,74.71,210.75Z"/><path class="cls-12" d="M109.22,154.69c4.19,7.59,7.39,15.77,11.37,22.78A81.72,81.72,0,0,1,109,159a77.29,77.29,0,0,1-4.94-15.94A88,88,0,0,0,109.22,154.69Z"/></g></g></svg>