<svg xmlns="http://www.w3.org/2000/svg" xmlns:xlink="http://www.w3.org/1999/xlink" viewBox="0 0 284.14 265.46"><defs><style>.cls-1{fill:none;}.cls-2{isolation:isolate;}.cls-3,.cls-51,.cls-60,.cls-65{fill:#f4f7fa;}.cls-4{fill:url(#linear-gradient);}.cls-5{fill:url(#linear-gradient-2);}.cls-6{fill:url(#linear-gradient-3);}.cls-7{fill:url(#linear-gradient-4);}.cls-8{fill:url(#linear-gradient-5);}.cls-9{fill:url(#linear-gradient-6);}.cls-10{fill:url(#linear-gradient-7);}.cls-11{fill:url(#linear-gradient-8);}.cls-12{fill:url(#linear-gradient-9);}.cls-13{fill:url(#linear-gradient-10);}.cls-14{fill:url(#linear-gradient-11);}.cls-15{fill:url(#linear-gradient-12);}.cls-16{fill:url(#linear-gradient-13);}.cls-17{fill:url(#linear-gradient-14);}.cls-18{fill:url(#linear-gradient-15);}.cls-19,.cls-22,.cls-31,.cls-34,.cls-43,.cls-54,.cls-56,.cls-64,.cls-71,.cls-77{opacity:0.3;}.cls-19,.cls-22,.cls-24,.cls-34,.cls-43,.cls-54,.cls-56,.cls-64,.cls-71,.cls-77{mix-blend-mode:multiply;}.cls-20{fill:url(#linear-gradient-16);}.cls-21{fill:url(#linear-gradient-17);}.cls-22{fill:url(#linear-gradient-18);}.cls-23{fill:url(#linear-gradient-19);}.cls-24{fill:url(#linear-gradient-20);}.cls-25{fill:url(#linear-gradient-21);}.cls-26{fill:url(#linear-gradient-22);}.cls-27{fill:url(#linear-gradient-23);}.cls-28{fill:url(#linear-gradient-24);}.cls-29{fill:url(#linear-gradient-25);}.cls-30{fill:url(#linear-gradient-26);}.cls-31{mix-blend-mode:color-burn;}.cls-32{fill:url(#linear-gradient-27);}.cls-33{fill:url(#linear-gradient-28);}.cls-34{fill:url(#linear-gradient-29);}.cls-35{clip-path:url(#clip-path);}.cls-36{fill:url(#linear-gradient-30);}.cls-37{fill:url(#linear-gradient-31);}.cls-38{fill:url(#linear-gradient-32);}.cls-39{fill:url(#linear-gradient-33);}.cls-40{fill:url(#linear-gradient-34);}.cls-41{fill:url(#linear-gradient-35);}.cls-42{fill:url(#linear-gradient-36);}.cls-43{fill:url(#linear-gradient-37);}.cls-44{fill:url(#linear-gradient-38);}.cls-45{fill:url(#linear-gradient-39);}.cls-46{fill:url(#linear-gradient-40);}.cls-47{fill:url(#linear-gradient-41);}.cls-48{fill:url(#linear-gradient-42);}.cls-49{fill:url(#linear-gradient-43);}.cls-50{fill:url(#linear-gradient-44);}.cls-51{opacity:0.75;}.cls-52{fill:url(#linear-gradient-45);}.cls-53{fill:url(#linear-gradient-46);}.cls-54{fill:url(#linear-gradient-47);}.cls-55{fill:url(#linear-gradient-48);}.cls-56{fill:url(#linear-gradient-49);}.cls-57{fill:url(#linear-gradient-50);}.cls-58{fill:url(#linear-gradient-51);}.cls-59{fill:url(#linear-gradient-52);}.cls-60{opacity:0.5;}.cls-60,.cls-65{mix-blend-mode:soft-light;}.cls-61{fill:url(#linear-gradient-53);}.cls-62{fill:url(#linear-gradient-54);}.cls-63{fill:url(#linear-gradient-55);}.cls-64{fill:url(#linear-gradient-56);}.cls-65{opacity:0.44;}.cls-66{fill:url(#linear-gradient-57);}.cls-67{fill:url(#linear-gradient-58);}.cls-68{fill:url(#linear-gradient-59);}.cls-69{fill:url(#linear-gradient-60);}.cls-70{fill:url(#linear-gradient-61);}.cls-71{fill:url(#linear-gradient-62);}.cls-72{fill:url(#linear-gradient-63);}.cls-73{fill:url(#linear-gradient-64);}.cls-74{fill:url(#linear-gradient-65);}.cls-75{fill:url(#linear-gradient-66);}.cls-76{fill:url(#linear-gradient-67);}.cls-77{fill:url(#linear-gradient-68);}</style><linearGradient id="linear-gradient" x1="7324.69" y1="2519.76" x2="7311.93" y2="2578.56" gradientTransform="translate(3769.21 -6617.92) rotate(98.43)" gradientUnits="userSpaceOnUse"><stop offset="0" stop-color="#ffc444"/><stop offset="1" stop-color="#f36f56"/></linearGradient><linearGradient id="linear-gradient-2" x1="7203.01" y1="2459.67" x2="7167.4" y2="2623.71" xlink:href="#linear-gradient"/><linearGradient id="linear-gradient-3" x1="6023.36" y1="3010.2" x2="6008.53" y2="3078.51" gradientTransform="translate(2585.61 -6308.74) rotate(83.47)" gradientUnits="userSpaceOnUse"><stop offset="0" stop-color="#aa80f9"/><stop offset="1" stop-color="#6165d7"/></linearGradient><linearGradient id="linear-gradient-4" x1="9605.15" y1="547.5" x2="9597.94" y2="580.73" gradientTransform="translate(7460.73 -6013.64) rotate(136)" xlink:href="#linear-gradient"/><linearGradient id="linear-gradient-5" x1="135.53" y1="52.55" x2="98.04" y2="41.94" gradientUnits="userSpaceOnUse"><stop offset="0" stop-color="#311944"/><stop offset="1" stop-color="#a03976"/></linearGradient><linearGradient id="linear-gradient-6" x1="135.43" y1="52.89" x2="97.94" y2="42.28" xlink:href="#linear-gradient-5"/><linearGradient id="linear-gradient-7" x1="97.06" y1="28.86" x2="97.64" y2="76.2" gradientUnits="userSpaceOnUse"><stop offset="0" stop-color="#ff9085"/><stop offset="1" stop-color="#fb6fbb"/></linearGradient><linearGradient id="linear-gradient-8" x1="131.3" y1="107.01" x2="57.87" y2="86.23" xlink:href="#linear-gradient-5"/><linearGradient id="linear-gradient-9" x1="131.11" y1="107.69" x2="57.67" y2="86.91" xlink:href="#linear-gradient-5"/><linearGradient id="linear-gradient-10" x1="55.94" y1="60.6" x2="57.09" y2="153.33" xlink:href="#linear-gradient-7"/><linearGradient id="linear-gradient-11" x1="5277.68" y1="2200.55" x2="5329.64" y2="2200.55" gradientTransform="matrix(-0.78, -0.62, -0.62, 0.78, 5678.96, 1774.94)" gradientUnits="userSpaceOnUse"><stop offset="0" stop-color="#444b8c"/><stop offset="1" stop-color="#26264f"/></linearGradient><linearGradient id="linear-gradient-12" x1="5380.43" y1="2200.55" x2="5432.4" y2="2200.55" xlink:href="#linear-gradient-11"/><linearGradient id="linear-gradient-13" x1="111.3" y1="288.29" x2="144.54" y2="225.37" gradientTransform="matrix(1, 0, 0, 1, 0, 0)" xlink:href="#linear-gradient"/><linearGradient id="linear-gradient-14" x1="21.9" y1="241.06" x2="55.14" y2="178.14" gradientTransform="matrix(1, 0, 0, 1, 0, 0)" xlink:href="#linear-gradient"/><linearGradient id="linear-gradient-15" x1="5324.72" y1="2162.51" x2="5435.76" y2="2045.64" gradientTransform="matrix(-0.78, -0.62, -0.62, 0.78, 5678.96, 1774.94)" xlink:href="#linear-gradient"/><linearGradient id="linear-gradient-16" x1="5315.71" y1="2153.95" x2="5426.75" y2="2037.09" gradientTransform="matrix(-0.78, -0.62, -0.62, 0.78, 5678.96, 1774.94)" xlink:href="#linear-gradient"/><linearGradient id="linear-gradient-17" x1="175.3" y1="141.92" x2="190.34" y2="84.93" gradientTransform="matrix(1, 0, 0, 1, 0, 0)" xlink:href="#linear-gradient"/><linearGradient id="linear-gradient-18" x1="5321.66" y1="2071.53" x2="5363.26" y2="2027.74" gradientTransform="matrix(-0.78, -0.62, -0.62, 0.78, 5678.96, 1774.94)" xlink:href="#linear-gradient"/><linearGradient id="linear-gradient-19" x1="5318.08" y1="2116.77" x2="5391.98" y2="2116.77" gradientTransform="matrix(0, -1, -1, 0, 2284.23, 5463.46)" gradientUnits="userSpaceOnUse"><stop offset="0" stop-color="#ebeff2"/><stop offset="1" stop-color="#fff"/></linearGradient><linearGradient id="linear-gradient-20" x1="5318.08" y1="2117.98" x2="5391.99" y2="2117.98" gradientTransform="matrix(-0.78, -0.62, -0.62, 0.78, 5678.96, 1774.94)" xlink:href="#linear-gradient-19"/><linearGradient id="linear-gradient-21" x1="5366.52" y1="2093.15" x2="5348.35" y2="2130.51" gradientTransform="matrix(0, -1, -1, 0, 2284.25, 5463.46)" xlink:href="#linear-gradient-19"/><linearGradient id="linear-gradient-22" x1="5322.84" y1="2163.75" x2="5377.87" y2="2083.45" gradientTransform="matrix(0, -1, -1, 0, 2284.25, 5463.45)" xlink:href="#linear-gradient-11"/><linearGradient id="linear-gradient-23" x1="5353.04" y1="2233.61" x2="5355.33" y2="2203.79" gradientTransform="matrix(0, -1, -1, 0, 2317.95, 5533.42)" xlink:href="#linear-gradient"/><linearGradient id="linear-gradient-24" x1="5329.71" y1="2212.37" x2="5380.37" y2="2212.37" gradientTransform="matrix(-0.78, -0.62, -0.62, 0.78, 5678.96, 1774.94)" xlink:href="#linear-gradient-3"/><linearGradient id="linear-gradient-25" x1="5358.4" y1="2211.35" x2="5345.95" y2="2248.82" gradientTransform="matrix(0, -1, -1, 0, 2323.91, 5545.51)" xlink:href="#linear-gradient-3"/><linearGradient id="linear-gradient-26" x1="5357.6" y1="2213.77" x2="5348.13" y2="2242.26" xlink:href="#linear-gradient-11"/><linearGradient id="linear-gradient-27" x1="5319.42" y1="2161.4" x2="5374.45" y2="2081.1" xlink:href="#linear-gradient-11"/><linearGradient id="linear-gradient-28" x1="132.9" y1="148.24" x2="91.41" y2="188.72" xlink:href="#linear-gradient-7"/><linearGradient id="linear-gradient-29" x1="135.32" y1="150.98" x2="93.87" y2="191.41" xlink:href="#linear-gradient-7"/><clipPath id="clip-path"><path class="cls-1" d="M69.07,44.93c-30.36,16.86-20.58,98.53,51,81.91,10.57-2.45,15.31-18,21.77-7.91,3.56,5.54,5.31,7.73,8.79,10.49,12.77,10.12,30.52,9,39.63-2.5s74-104.32,61.19-114.44C245.87,8,196.08,13.07,170,23.16,136.74,36,76.25,40.94,69.07,44.93Z"/></clipPath><linearGradient id="linear-gradient-30" x1="6367.94" y1="-256.32" x2="6349.14" y2="-151.66" gradientTransform="matrix(-1, 0.08, 0.08, 1, 6589.63, -251.51)" gradientUnits="userSpaceOnUse"><stop offset="0" stop-color="#893976"/><stop offset="1" stop-color="#311944"/></linearGradient><linearGradient id="linear-gradient-31" x1="7511.93" y1="5758.47" x2="7493.13" y2="5863.14" gradientTransform="matrix(-0.15, -0.83, -0.98, 0.18, 6957.86, 5315.79)" xlink:href="#linear-gradient-30"/><linearGradient id="linear-gradient-32" x1="-117.42" y1="583.11" x2="-122.2" y2="554.93" gradientTransform="translate(316.7 -357.7) rotate(5.76)" xlink:href="#linear-gradient-3"/><linearGradient id="linear-gradient-33" x1="-120.25" y1="572.17" x2="-118.65" y2="555.51" gradientTransform="translate(316.7 -357.7) rotate(5.76)" xlink:href="#linear-gradient"/><linearGradient id="linear-gradient-34" x1="-91.31" y1="578.67" x2="-96.09" y2="550.5" gradientTransform="translate(316.7 -357.7) rotate(5.76)" xlink:href="#linear-gradient-3"/><linearGradient id="linear-gradient-35" x1="-94.86" y1="574.6" x2="-93.27" y2="557.94" gradientTransform="translate(316.7 -357.7) rotate(5.76)" xlink:href="#linear-gradient"/><linearGradient id="linear-gradient-36" x1="177.99" y1="135.23" x2="144.2" y2="180.06" gradientTransform="matrix(1, 0, 0, 1, 0, 0)" xlink:href="#linear-gradient-30"/><linearGradient id="linear-gradient-37" x1="-123.63" y1="567.82" x2="-98.82" y2="474.61" gradientTransform="translate(316.7 -357.7) rotate(5.76)" xlink:href="#linear-gradient-11"/><linearGradient id="linear-gradient-38" x1="-69.33" y1="407.64" x2="-123.3" y2="478.99" gradientTransform="translate(316.7 -357.7) rotate(5.76)" gradientUnits="userSpaceOnUse"><stop offset="0" stop-color="#e38ddd"/><stop offset="1" stop-color="#9571f6"/></linearGradient><linearGradient id="linear-gradient-39" x1="167.71" y1="76.53" x2="179.58" y2="43.69" gradientTransform="matrix(1, 0, 0, 1, 0, 0)" xlink:href="#linear-gradient-30"/><linearGradient id="linear-gradient-40" x1="5069.25" y1="-924.02" x2="5064.17" y2="-936.9" gradientTransform="matrix(-1, 0, 0, 1, 5239.35, 990.81)" gradientUnits="userSpaceOnUse"><stop offset="0" stop-color="#444b8c"/><stop offset="1" stop-color="#3e4177"/></linearGradient><linearGradient id="linear-gradient-41" x1="7758.31" y1="-1575.72" x2="7739.51" y2="-1471.06" gradientTransform="matrix(-0.88, 0.48, 0.48, 0.88, 8026.93, -1905.29)" xlink:href="#linear-gradient-30"/><linearGradient id="linear-gradient-42" x1="-69.64" y1="407.41" x2="-123.6" y2="478.75" gradientTransform="translate(316.7 -357.7) rotate(5.76)" xlink:href="#linear-gradient-3"/><linearGradient id="linear-gradient-43" x1="3093.53" y1="57.22" x2="3094.48" y2="71.14" gradientTransform="translate(-2920.56)" xlink:href="#linear-gradient-11"/><linearGradient id="linear-gradient-44" x1="3090.74" y1="85.76" x2="3090.74" y2="52.99" gradientTransform="translate(-2920.56)" xlink:href="#linear-gradient-11"/><linearGradient id="linear-gradient-45" x1="565.02" y1="837.72" x2="565.52" y2="833.74" gradientTransform="translate(1049.84 -318.6) rotate(90)" gradientUnits="userSpaceOnUse"><stop offset="0" stop-color="#26264f"/><stop offset="1" stop-color="#444b8c"/></linearGradient><linearGradient id="linear-gradient-46" x1="562.98" y1="834.09" x2="567.95" y2="825.13" gradientTransform="matrix(0.99, 0.16, -0.16, 0.99, -204.95, -667.3)" xlink:href="#linear-gradient-45"/><linearGradient id="linear-gradient-47" x1="557.35" y1="829.84" x2="573.87" y2="829.84" gradientTransform="matrix(0.99, 0.16, -0.16, 0.99, -204.95, -667.3)" xlink:href="#linear-gradient-45"/><linearGradient id="linear-gradient-48" x1="563.45" y1="831.64" x2="568.37" y2="822.18" gradientTransform="matrix(0.99, 0.16, -0.16, 0.99, -204.95, -667.3)" xlink:href="#linear-gradient-45"/><linearGradient id="linear-gradient-49" x1="556.61" y1="827.06" x2="574.6" y2="827.06" gradientTransform="matrix(0.99, 0.16, -0.16, 0.99, -204.95, -667.3)" xlink:href="#linear-gradient-45"/><linearGradient id="linear-gradient-50" x1="556.34" y1="823.81" x2="574.87" y2="823.81" gradientTransform="matrix(0.99, 0.16, -0.16, 0.99, -204.95, -667.3)" xlink:href="#linear-gradient-45"/><linearGradient id="linear-gradient-51" x1="565.15" y1="822.41" x2="566.97" y2="813.86" gradientTransform="translate(1039.14 -331.22) rotate(90)" xlink:href="#linear-gradient-45"/><linearGradient id="linear-gradient-52" x1="561.64" y1="774.73" x2="597.85" y2="832.22" gradientTransform="matrix(0.99, 0.16, -0.16, 0.99, -204.95, -667.3)" gradientUnits="userSpaceOnUse"><stop offset="0" stop-color="#fcb148"/><stop offset="0.05" stop-color="#fdba46"/><stop offset="0.14" stop-color="#ffc244"/><stop offset="0.32" stop-color="#ffc444"/><stop offset="0.48" stop-color="#fdb946"/><stop offset="0.78" stop-color="#f99c4d"/><stop offset="0.87" stop-color="#f8924f"/><stop offset="1" stop-color="#f8924f"/></linearGradient><linearGradient id="linear-gradient-53" x1="555.03" y1="819" x2="562.41" y2="797.43" gradientTransform="matrix(0.99, 0.16, -0.16, 0.99, -204.95, -667.3)" gradientUnits="userSpaceOnUse"><stop offset="0.49" stop-color="#ebeff2"/><stop offset="1" stop-color="#fff"/></linearGradient><linearGradient id="linear-gradient-54" x1="562.09" y1="821.41" x2="569.47" y2="799.84" xlink:href="#linear-gradient-53"/><linearGradient id="linear-gradient-55" x1="552.46" y1="818.12" x2="559.84" y2="796.55" xlink:href="#linear-gradient-53"/><linearGradient id="linear-gradient-56" x1="562.91" y1="761.77" x2="555.7" y2="821.25" xlink:href="#linear-gradient-52"/><linearGradient id="linear-gradient-57" x1="35.99" y1="180.1" x2="21.4" y2="184.78" gradientTransform="matrix(1, 0, 0, 1, 0, 0)" xlink:href="#linear-gradient-52"/><linearGradient id="linear-gradient-58" x1="47.79" y1="165.57" x2="34.76" y2="194.31" gradientUnits="userSpaceOnUse"><stop offset="0" stop-color="#ffdb44"/><stop offset="1" stop-color="#feef06"/></linearGradient><linearGradient id="linear-gradient-59" x1="45.39" y1="195.92" x2="42.88" y2="182.19" gradientTransform="matrix(1, 0, 0, 1, 0, 0)" xlink:href="#linear-gradient-52"/><linearGradient id="linear-gradient-60" x1="40.07" y1="173.69" x2="50.42" y2="195.68" gradientTransform="matrix(1, 0, 0, 1, 0, 0)" xlink:href="#linear-gradient-52"/><linearGradient id="linear-gradient-61" x1="39.65" y1="168.96" x2="44.86" y2="188.48" xlink:href="#linear-gradient-58"/><linearGradient id="linear-gradient-62" x1="37.02" y1="175.12" x2="47.36" y2="197.06" gradientTransform="matrix(1, 0, 0, 1, 0, 0)" xlink:href="#linear-gradient-52"/><linearGradient id="linear-gradient-63" x1="23.01" y1="160.3" x2="12.94" y2="163.53" gradientTransform="matrix(1, 0, 0, 1, 0, 0)" xlink:href="#linear-gradient-52"/><linearGradient id="linear-gradient-64" x1="31.16" y1="150.28" x2="22.17" y2="170.11" xlink:href="#linear-gradient-58"/><linearGradient id="linear-gradient-65" x1="29.5" y1="171.22" x2="27.77" y2="161.74" gradientTransform="matrix(1, 0, 0, 1, 0, 0)" xlink:href="#linear-gradient-52"/><linearGradient id="linear-gradient-66" x1="25.83" y1="155.88" x2="32.97" y2="171.05" gradientTransform="matrix(1, 0, 0, 1, 0, 0)" xlink:href="#linear-gradient-52"/><linearGradient id="linear-gradient-67" x1="25.54" y1="152.61" x2="29.14" y2="166.09" xlink:href="#linear-gradient-58"/><linearGradient id="linear-gradient-68" x1="23.72" y1="156.86" x2="30.86" y2="172.01" gradientTransform="matrix(1, 0, 0, 1, 0, 0)" xlink:href="#linear-gradient-52"/></defs><g class="cls-2"><g id="Layer_2" data-name="Layer 2"><g id="Layer_1-2" data-name="Layer 1"><g id="Start_up_1" data-name="Start up 1"><path class="cls-3" d="M284.1,109.31S286.21-1.31,129.62,0C99.23.27,66.53.4,37.5,9.73,26.63,13.22,17.78,21.07,17,31.76c-1,13.68,6.14,26.87,4.47,40.49C17.27,106.75-39.61,200,51,244.12S286.91,229.42,284.1,109.31Z"/><path class="cls-4" d="M200.08,256.38,194,258.46l-1.79,6.38a.82.82,0,0,1-1.47.27l-3.82-5.37-6.43.18a.87.87,0,0,1-.71-1.37l3.72-5.42-2.22-6.33a.85.85,0,0,1,1-1.13l6.17,2.06,5.11-4.12a.85.85,0,0,1,1.37.69l0,6.75,5.34,3.79A.88.88,0,0,1,200.08,256.38Z"/><path class="cls-5" d="M272.38,141.44l-17.08,5.8-5,17.8a2.3,2.3,0,0,1-4.12.74l-10.66-15-17.92.52a2.45,2.45,0,0,1-2-3.84L226,132.36l-6.2-17.66a2.39,2.39,0,0,1,2.91-3.16l17.22,5.76,14.26-11.5a2.36,2.36,0,0,1,3.81,1.94l.09,18.81L273,137.12A2.47,2.47,0,0,1,272.38,141.44Z"/><path class="cls-6" d="M276.14,16.43l-6.25,4.17-.1,7.7a1,1,0,0,1-1.58.74l-5.89-4.88-7.16,2.13A1,1,0,0,1,254,25l2.55-7.19-4.39-6.44a1,1,0,0,1,.83-1.58l7.54.46L265,4.05a1,1,0,0,1,1.73.37L268.79,12l7.12,2.65A1,1,0,0,1,276.14,16.43Z"/><path class="cls-7" d="M169.89,262.42l-3.46-1.18-3,2.25a.46.46,0,0,1-.75-.39l.14-3.73-2.95-2.13a.5.5,0,0,1,.16-.86l3.53-1.14,1.19-3.61a.49.49,0,0,1,.86-.15l2,3.06,3.71-.09a.48.48,0,0,1,.37.78l-2.31,3,1.09,3.53A.5.5,0,0,1,169.89,262.42Z"/><path class="cls-8" d="M106.55,49.84a2.64,2.64,0,0,0,2.39-4.7l-.19-.09a15.12,15.12,0,0,0,.5-2.17h.21a2.77,2.77,0,0,0,2.43-2.81,2.33,2.33,0,0,0-2.53-2.37l-.21,0a14.57,14.57,0,0,0-.59-2.08l.19-.11a2.76,2.76,0,0,0,.83-3.62,2.33,2.33,0,0,0-3.4-.65l-.17.13A13.5,13.5,0,0,0,104.49,30a2,2,0,0,1,.11-.2c.66-1.3,1.52-2.72.31-3.31-2.8-1.37-4-.2-4.66,1.1a1,1,0,0,0-.09.21,12.14,12.14,0,0,0-2-.39,1.62,1.62,0,0,0,0-.22c0-1.43.4-2.2-1-2.23-3-.06-4,1.24-4,2.67a1.5,1.5,0,0,0,0,.22,14.39,14.39,0,0,0-2,.75l-.1-.19a2.35,2.35,0,0,0-3.41-.64,2.76,2.76,0,0,0-.84,3.62l.12.17a14.89,14.89,0,0,0-1.46,1.69l-.17-.11a2.65,2.65,0,0,0-2.39,4.71l.18.08a15.44,15.44,0,0,0-.5,2.17h-.21A2.77,2.77,0,0,0,80,42.91a2.35,2.35,0,0,0,2.54,2.37l.21,0a14.41,14.41,0,0,0,.58,2.07l-.18.12a2.76,2.76,0,0,0-.84,3.62,3.41,3.41,0,0,0,4.23.9c.06,0-.71-.34-.65-.39A12.05,12.05,0,0,0,87.36,53a1.28,1.28,0,0,0-.11.2,2.44,2.44,0,1,0,4.35,2.2l.09-.2a11.85,11.85,0,0,0,2,.39,1.61,1.61,0,0,0,0,.22,2.33,2.33,0,0,0,2.53,2.37,2.78,2.78,0,0,0,2.43-2.82c0-.07,0-.14,0-.22a13.6,13.6,0,0,0,2-.74,1.62,1.62,0,0,0,.1.18,2.34,2.34,0,0,0,3.41.65A2.76,2.76,0,0,0,105,51.6a1,1,0,0,0-.11-.17,14.81,14.81,0,0,0,1.45-1.69Zm-15,.19c-4.36-2.21-6-7.83-3.55-12.55s7.87-6.75,12.23-4.54,5.95,7.84,3.56,12.56S95.94,52.25,91.58,50Z"/><path class="cls-9" d="M109.46,42.88a2.77,2.77,0,0,0,2.43-2.81,2.33,2.33,0,0,0-2.53-2.37l-.21,0a14.57,14.57,0,0,0-.59-2.08l.19-.11c1.17-.82,2.62-2.81,1.79-3.91-1.57-2.08-3.19-1.18-4.36-.36l-.17.13A13.5,13.5,0,0,0,104.49,30a2,2,0,0,1,.11-.2,2.71,2.71,0,0,0,.15-2.15q-1.69,3-3.35,6a9.4,9.4,0,0,1,2.42,11.86,9.63,9.63,0,0,1-9.08,5.41c-.16.41-.32.83-.49,1.23-.46,1.12-1,2.21-1.52,3.29.33.06.67.11,1,.15a1.61,1.61,0,0,0,0,.22c0,1.43.89,2.64,3.37,2.51,1.38-.07,1.61-1.52,1.59-3,0-.07,0-.14,0-.22a13.6,13.6,0,0,0,2-.74,1.62,1.62,0,0,0,.1.18,3.57,3.57,0,0,0,4.34.86c1.18-.82.61-2.65-.1-3.83a1,1,0,0,0-.11-.17,14.81,14.81,0,0,0,1.45-1.69l.18.1a2.64,2.64,0,0,0,2.39-4.7l-.19-.09a15.12,15.12,0,0,0,.5-2.17Z"/><path class="cls-10" d="M107.84,50a2.65,2.65,0,0,0,2.39-4.71L110,45.2a15.16,15.16,0,0,0,.51-2.17h.2a2.76,2.76,0,0,0,2.43-2.81,2.34,2.34,0,0,0-2.53-2.37l-.21,0a13.25,13.25,0,0,0-.59-2.07,2,2,0,0,0,.19-.12,2.76,2.76,0,0,0,.84-3.62,2.35,2.35,0,0,0-3.41-.64l-.17.13a13.66,13.66,0,0,0-1.52-1.42l.11-.19a2.45,2.45,0,1,0-4.35-2.21l-.09.2a14.66,14.66,0,0,0-2-.39v-.21A2.34,2.34,0,0,0,96.88,25a2.76,2.76,0,0,0-2.43,2.81,1.64,1.64,0,0,0,0,.22,14.39,14.39,0,0,0-2,.75c0-.07-.07-.13-.1-.19a2.34,2.34,0,0,0-3.41-.65,2.77,2.77,0,0,0-.84,3.62l.12.18a13.77,13.77,0,0,0-1.45,1.68l-.18-.1A2.65,2.65,0,0,0,84.2,38l.19.08a13.93,13.93,0,0,0-.51,2.17h-.21a2.75,2.75,0,0,0-2.42,2.81,2.33,2.33,0,0,0,2.53,2.37l.21,0a13.25,13.25,0,0,0,.59,2.07,1.22,1.22,0,0,0-.19.12,2.76,2.76,0,0,0-.84,3.62,2.35,2.35,0,0,0,3.41.64,1.09,1.09,0,0,0,.17-.13,12.05,12.05,0,0,0,1.52,1.42l-.11.19a2.45,2.45,0,1,0,4.35,2.21l.09-.2a14.38,14.38,0,0,0,2,.39,1.47,1.47,0,0,0,0,.21,2.33,2.33,0,0,0,2.53,2.37A2.76,2.76,0,0,0,100,55.5a1.64,1.64,0,0,0,0-.22,12.61,12.61,0,0,0,2-.75,1.14,1.14,0,0,0,.1.19,2.34,2.34,0,0,0,3.41.65,2.76,2.76,0,0,0,.83-3.62,1,1,0,0,0-.11-.17,15.73,15.73,0,0,0,1.45-1.69Zm-15,.19c-4.35-2.21-6-7.83-3.55-12.55s7.87-6.75,12.23-4.54,6,7.83,3.56,12.55S97.23,52.39,92.87,50.18Z"/><path class="cls-11" d="M74.54,101.72a5.19,5.19,0,0,0,4.68-9.23l-.37-.16a29.35,29.35,0,0,0,1-4.25h.41A5.41,5.41,0,0,0,85,82.56a4.58,4.58,0,0,0-5-4.64,2.9,2.9,0,0,0-.41.06,27.75,27.75,0,0,0-1.15-4.06l.37-.23a5.4,5.4,0,0,0,1.63-7.09,4.57,4.57,0,0,0-6.67-1.27c-.12.08-.23.17-.34.26a23.64,23.64,0,0,0-3-2.77c.07-.13.15-.25.21-.39,1.3-2.54,3-5.32.62-6.48-5.49-2.68-7.84-.39-9.13,2.16a3.52,3.52,0,0,0-.18.4,24.1,24.1,0,0,0-4-.76c0-.15,0-.29,0-.43C58,54.52,58.8,53,56.11,53c-5.87-.12-7.85,2.43-7.8,5.23,0,.15,0,.29,0,.44a27.18,27.18,0,0,0-4,1.46l-.2-.37a4.58,4.58,0,0,0-6.67-1.26,5.41,5.41,0,0,0-1.64,7.09c.07.12.15.23.22.34a30.21,30.21,0,0,0-2.84,3.3l-.35-.2a5.19,5.19,0,0,0-4.69,9.22l.37.16a30.69,30.69,0,0,0-1,4.25l-.41,0a5.42,5.42,0,0,0-4.76,5.51,4.59,4.59,0,0,0,5,4.64l.42-.06A26.88,26.88,0,0,0,29,96.78a2.85,2.85,0,0,0-.37.23A5.41,5.41,0,0,0,27,104.1c1.39,2.3,6,3.38,8.29,1.77.12-.08-1.39-.68-1.28-.77a24.58,24.58,0,0,0,3,2.78c-.08.12-.15.25-.22.38a4.79,4.79,0,1,0,8.52,4.33c.07-.14.12-.27.18-.4a25.17,25.17,0,0,0,4,.76c0,.14,0,.28,0,.43a4.58,4.58,0,0,0,5,4.64,5.41,5.41,0,0,0,4.75-5.51,3,3,0,0,0,0-.43,28.58,28.58,0,0,0,4-1.47,2.64,2.64,0,0,0,.2.37,4.58,4.58,0,0,0,6.67,1.27,5.41,5.41,0,0,0,1.64-7.09,4,4,0,0,0-.23-.34,29.34,29.34,0,0,0,2.85-3.31Zm-29.32.37c-8.54-4.34-11.65-15.35-7-24.59s15.42-13.23,24-8.89S73.88,84,69.18,93.2,53.76,106.42,45.22,102.09Z"/><path class="cls-12" d="M80.25,88.07A5.41,5.41,0,0,0,85,82.56a4.58,4.58,0,0,0-5-4.64,2.9,2.9,0,0,0-.41.06,27.75,27.75,0,0,0-1.15-4.06l.37-.23c2.29-1.61,5.13-5.5,3.51-7.65-3.07-4.08-6.25-2.32-8.55-.71-.12.08-.23.17-.34.26a24.49,24.49,0,0,0-3-2.78,3.41,3.41,0,0,0,.21-.38,5.29,5.29,0,0,0,.3-4.21Q67.69,64.07,64.46,70c6.81,5,9,14.83,4.72,23.22A18.8,18.8,0,0,1,51.4,103.79c-.31.81-.62,1.63-.95,2.43-.91,2.18-1.94,4.31-3,6.44.65.12,1.31.22,2,.29,0,.14,0,.28,0,.43,0,2.8,1.76,5.18,6.62,4.92,2.69-.14,3.15-3,3.09-5.79a3,3,0,0,0,0-.43,28.58,28.58,0,0,0,4-1.47,2.64,2.64,0,0,0,.2.37c1.39,2.31,6.21,3.29,8.51,1.68s1.19-5.2-.2-7.5a4,4,0,0,0-.23-.34,29.34,29.34,0,0,0,2.85-3.31,4.05,4.05,0,0,0,.35.21,5.19,5.19,0,0,0,4.68-9.23l-.37-.16a29.35,29.35,0,0,0,1-4.25Z"/><path class="cls-13" d="M77.07,102a5.19,5.19,0,0,0,4.68-9.22l-.37-.16a29.35,29.35,0,0,0,1-4.25,2.88,2.88,0,0,0,.41,0,5.4,5.4,0,0,0,4.75-5.5,4.57,4.57,0,0,0-5-4.64l-.41.05A28,28,0,0,0,81,74.21l.37-.23A5.42,5.42,0,0,0,83,66.89a4.57,4.57,0,0,0-6.67-1.27c-.12.08-.23.17-.34.26a24.49,24.49,0,0,0-3-2.78c.07-.12.15-.25.21-.38a4.79,4.79,0,1,0-8.51-4.32,2.87,2.87,0,0,0-.18.4,24.13,24.13,0,0,0-4-.77c0-.14,0-.28,0-.42a4.58,4.58,0,0,0-5-4.64,5.39,5.39,0,0,0-4.76,5.5c0,.15,0,.29,0,.43a28,28,0,0,0-3.95,1.47l-.2-.37A4.58,4.58,0,0,0,40,58.74a5.41,5.41,0,0,0-1.63,7.09,3.78,3.78,0,0,0,.22.33,30.32,30.32,0,0,0-2.84,3.31c-.12-.07-.23-.14-.36-.2a5.19,5.19,0,0,0-4.68,9.22l.37.16a30.69,30.69,0,0,0-1,4.25,2.82,2.82,0,0,0-.41,0A5.42,5.42,0,0,0,25,88.42a4.58,4.58,0,0,0,5,4.64l.42,0a26.76,26.76,0,0,0,1.15,4l-.37.23a5.41,5.41,0,0,0-1.64,7.09,4.58,4.58,0,0,0,6.67,1.27c.12-.08.23-.17.34-.26a24.58,24.58,0,0,0,3,2.78c-.08.12-.15.25-.22.38a4.79,4.79,0,1,0,8.52,4.32c.07-.13.12-.26.18-.4a24.13,24.13,0,0,0,4,.77,3,3,0,0,0,0,.42,4.57,4.57,0,0,0,5,4.64,5.39,5.39,0,0,0,4.75-5.5,3,3,0,0,0,0-.43,28.58,28.58,0,0,0,4-1.47,3.35,3.35,0,0,0,.2.37,4.57,4.57,0,0,0,6.67,1.26,5.4,5.4,0,0,0,1.64-7.09l-.23-.33a29.34,29.34,0,0,0,2.85-3.31Zm-29.32.38C39.21,98,36.1,87,40.79,77.79s15.42-13.23,24-8.9,11.66,15.35,7,24.6S56.29,106.71,47.75,102.38Z"/><path class="cls-14" d="M158.65,172.08s23,25.83,3.38,67.33a5.53,5.53,0,0,1-9.57.73l-15.28-22.55A15.46,15.46,0,0,1,135,205.26l5.29-21.79Z"/><path class="cls-15" d="M107.32,131.41S76.92,115,41,143.51A5.53,5.53,0,0,0,42.48,153l25.44,9.71a15.48,15.48,0,0,0,12.52-.65l20-10.13Z"/><path class="cls-16" d="M160.92,169.22s23,25.83,3.38,67.33a5.53,5.53,0,0,1-9.57.72l-15.28-22.54a15.49,15.49,0,0,1-2.23-12.34l5.29-21.78Z"/><path class="cls-17" d="M109.59,128.54s-30.4-16.46-66.32,12.11a5.52,5.52,0,0,0,1.48,9.48l25.44,9.72a15.52,15.52,0,0,0,12.52-.65l20-10.13Z"/><path class="cls-18" d="M133.61,63.53c32.25-32.55,85.67-20.79,85.7-20.72S243,92.14,218.72,131c-22.06,35.23-71.1,60.81-80.52,65.5-1,.51-2.66,1.2-3.26.24-11.71-18.64-27.4-30.43-46.25-36.62-1-.35-.71-2.08-.46-3.15C90.6,146.85,104.3,93.12,133.61,63.53Z"/><g class="cls-19"><path class="cls-20" d="M154.38,112.78c18-18.07,35-10.66,52.4-26.4,6.37-5.75,13.33-15.07,17.25-31.17,5.4,17.13,11.48,48.95-5.31,75.77-22.06,35.23-71.1,60.81-80.52,65.5-1,.51-2.66,1.2-3.26.24a88.52,88.52,0,0,0-20.69-23.16,58.48,58.48,0,0,0,15.26-12.85C144,143.35,137.93,129.25,154.38,112.78Z"/></g><path class="cls-21" d="M198,69.67c-12.42-9.84-27.71-18.75-41.4-21.55,25.85-11,54.07-6.93,61-5.64A3.16,3.16,0,0,1,220,44.32c2.85,6.51,13.23,33.06,8.47,60.72C223.57,93.71,210.44,79.51,198,69.67Z"/><path class="cls-22" d="M224,55.22c0,.08.05.16.07.24s.09.27.13.41.09.28.13.42l.12.4c.05.14.09.29.14.44s.07.26.11.39.09.32.14.48l.11.38.15.51c0,.12.06.24.1.36l.15.54.09.36c.06.19.11.38.16.57l.09.34c.05.2.1.4.16.6s.05.22.08.33.11.42.16.63,0,.21.08.32.11.43.16.65,0,.21.08.32.1.45.16.67.05.21.07.31.11.46.16.7,0,.2.07.3.1.48.16.72l.06.3c0,.24.1.49.16.74l.06.29.15.76.06.28.15.79c0,.09,0,.18.05.27l.15.81a2.38,2.38,0,0,0,0,.26c.05.28.09.56.14.83a2.34,2.34,0,0,1,0,.26l.15.85,0,.25c.05.29.1.58.14.87,0,.08,0,.16,0,.24,0,.3.08.6.13.89l0,.24.12.91,0,.22.12.94,0,.21c0,.32.07.64.1,1l0,.21c0,.32.07.65.1,1,0,.07,0,.13,0,.2l.09,1c0,.06,0,.12,0,.19,0,.33.05.67.08,1,0,.06,0,.11,0,.17,0,.35,0,.69.08,1a1,1,0,0,0,0,.17l.06,1.05a.92.92,0,0,0,0,.16c0,.35,0,.71.05,1.06v.15c0,.36,0,.72,0,1.09v.13c0,.37,0,.74,0,1.11v.11c0,.38,0,.76,0,1.14v.09c0,.39,0,.77,0,1.16V91c0,.39,0,.78,0,1.18v.06l0,1.21v0A88.2,88.2,0,0,1,228.47,105c-3.13-7.24-9.63-15.65-17.15-23.35C216.25,75.87,221,67.53,224,55.22Z"/><ellipse class="cls-23" cx="167.18" cy="108.6" rx="33.28" ry="36.95" transform="translate(-21.76 172.18) rotate(-51.61)"/><path class="cls-24" d="M154.38,112.78C169.1,98,183.08,100.26,197.2,93c7.55,12.28,7.61,27.58-1.06,38.53-11.42,14.4-33.64,15.8-49.63,3.13a41.62,41.62,0,0,1-3.68-3.29A46.27,46.27,0,0,1,154.38,112.78Z"/><ellipse class="cls-25" cx="167.18" cy="108.6" rx="30.5" ry="33.87" transform="translate(-21.76 172.18) rotate(-51.61)"/><ellipse class="cls-26" cx="167.18" cy="108.6" rx="26.57" ry="29.51" transform="translate(-21.76 172.18) rotate(-51.61)"/><ellipse class="cls-27" cx="111.68" cy="178.43" rx="9.08" ry="30.73" transform="translate(-97.53 155.15) rotate(-51.61)"/><path class="cls-28" d="M109.37,170.93l10.34,8.19a17.24,17.24,0,0,1,5.84,18.35l-1.87,6.39a3.46,3.46,0,0,1-5.47,1.74L83.93,178.44a3.46,3.46,0,0,1,.44-5.72l5.8-3.28A17.23,17.23,0,0,1,109.37,170.93Z"/><ellipse class="cls-29" cx="102.16" cy="190.64" rx="8.57" ry="25.36" transform="translate(-110.71 152.31) rotate(-51.61)"/><path class="cls-30" d="M87.05,178.67c-2.24,2.82,2.72,10.46,11.06,17.07s16.92,9.69,19.15,6.87-2.72-10.46-11.06-17.07S89.28,175.85,87.05,178.67Z"/><g class="cls-31"><path class="cls-32" d="M154.38,112.78c12.52-12.54,24.51-12.81,36.5-17.06,6.29,9.88,6.45,22.33-.58,31.2-9.11,11.5-26.86,12.62-39.63,2.5a32.69,32.69,0,0,1-5-4.87A45.84,45.84,0,0,1,154.38,112.78Z"/></g><path class="cls-33" d="M102.29,213.32C99,220.83,91.14,234,73.21,249.67,45.06,274.27,45.46,244.1,49,237.06s-16.92,9.17-36.24,4A10.27,10.27,0,0,1,7,237.7c-5.27-6.89,5.23-15.8,10-19.11,9.77-6.73,20.73-5.16,31.79-7.31,10.26-2,19.24-8.44,26.46-15.77a16.61,16.61,0,0,1,25,1.55,16.22,16.22,0,0,1,1.7,2.73A16,16,0,0,1,102.29,213.32Z"/><path class="cls-34" d="M102.29,213.32C99,220.83,91.14,234,73.21,249.67,45.06,274.27,45.46,244.1,49,237.06s-16.92,9.17-36.24,4A10.27,10.27,0,0,1,7,237.7c6.16.76,15.35-1.4,24.94-5.38,15.2-6.31,18.06-8.75,19.78-.14s.15,13,19.65,6.17c17.4-6.14,27-35.11,28.92-41.29a16.22,16.22,0,0,1,1.7,2.73A16,16,0,0,1,102.29,213.32Z"/><g class="cls-35"><path class="cls-36" d="M226.46,43.25S228,41,228.9,39.39,234.43,33,234.43,33s.44.67-.54,1.86-3.07,3.27-2.49,4,2.09,1.35,1.17,2.95-2.83.71-3.66,2-1.68,2.69-1.68,2.69Z"/><path class="cls-37" d="M104.66,92.68s-2.42.9-4.45,1.68S96.84,97,95.29,98s.47.94,1.72.91,3.72-.68,4.42-1.68,1.34-1.79,1.52-1.78,3-1.1,3-1.1Z"/><path class="cls-38" d="M138.23,200a1.87,1.87,0,0,1,.58-1.66,2.14,2.14,0,0,1,2.34-.05c.36.21.63.51,1.45,2.79s.83,2.77.63,3c-.41.39-1.38,0-1.59-.11-.7-.3-.85-.66-2.2-2.21C138.53,200.66,138.29,200.49,138.23,200Z"/><path class="cls-39" d="M139.29,196.48v2.68c.57.38.95.39,1.17.12l.78-2.61Z"/><path class="cls-40" d="M164.39,202.3a1.85,1.85,0,0,1-.24-1.75,2.1,2.1,0,0,1,2-1.12c.42,0,.8.16,2.57,1.8s2,2.08,1.93,2.35c-.18.53-1.24.61-1.47.63-.76,0-1.05-.2-3-1C165,202.75,164.68,202.7,164.39,202.3Z"/><path class="cls-41" d="M165,197.87v2.69c.57.37.95.39,1.18.12l.77-2.61Z"/><path class="cls-42" d="M138.56,196.93l2.85.46q4.53-14.5,9.75-29.64,5.73-16.58,11.68-32.07c.5,4.13.93,8.95,1.11,14.34.26,8-.14,14-.25,15.73-.61,8.59-1.45,9.52-1.64,14.9a57.19,57.19,0,0,0,2.43,18.29l2.75.11a209.85,209.85,0,0,0,7.7-34.37,210.28,210.28,0,0,0,1.53-42.18l-24.93-1.73a59.39,59.39,0,0,0-5.8,13.74c-1.9,6.86-1.51,10.38-3.62,22.18-1.08,6.1-1.52,7-2.27,11.08A109.64,109.64,0,0,0,138.56,196.93Z"/><path class="cls-43" d="M146.44,173.9c1.57-8-1.35-8.09.7-14.89,1.89-6.26,4.63-7.06,7.4-15,2.22-6.39,1.17-7.94,2.68-10.68,1.86-3.39,6.65-6.81,19.45-7.18,0-1.24-.12-2.45-.2-3.63l-24.93-1.73a59.39,59.39,0,0,0-5.8,13.74c-1.9,6.86-1.51,10.38-3.62,22.18-1.08,6.1-1.52,7-2.27,11.08a109.64,109.64,0,0,0-1.29,29.16l2.85.46.27-.85a12.29,12.29,0,0,1-1-2.78C139.25,187.1,144.49,183.85,146.44,173.9Z"/><path class="cls-44" d="M103.89,92c.53,1,1,2.11,1.58,3.16a59.44,59.44,0,0,0,10.69-3.56c6.92-3.05,8.13-5.17,14.64-7.52,4.47-1.61,10.19-3.59,14.24-.79a8.61,8.61,0,0,1,2.81,3.4c-.55,5.24-1.14,9.4-1.45,12-2.72,22.74-3.11,26.88-.32,29.45,2.44,2.24,4.09.37,16,1.8,10.88,1.31,13,3.29,16,1.56,4.81-2.79,3.85-10.68,4.89-20.3A86.05,86.05,0,0,1,193.42,79a45.21,45.21,0,0,0,19.69-9.12,46.09,46.09,0,0,0,15.43-24.14L225.77,43A45,45,0,0,1,210.34,56c-10,5-18,3.85-32.84,4.67-5.85.32-23.33,1.38-37.06,5.88C131.08,69.62,117.74,76.18,103.89,92Z"/><path class="cls-45" d="M173.34,54.58a18,18,0,0,1-2,4.92c-1.18,1.83-5.71,2.28-6.67,2.57s1.32,2,3.8,2.74,9.78,1.45,11.25.74-.88-1.08-2.56-2.07-2.08-4.7-1.47-6.24S173.34,54.58,173.34,54.58Z"/><path class="cls-46" d="M178.14,54a3,3,0,0,0-.58-3.73,3.33,3.33,0,0,0-2.57-.5c-.34,0-2.76.29-3.47,2a2.85,2.85,0,0,0,0,1.87,6.77,6.77,0,0,0,.77,1.43c.41.66.38.63.5.83a10.62,10.62,0,0,0,2,2.15,7.1,7.1,0,0,1,.39-1.15,6.17,6.17,0,0,1,.81-1.34C176.85,54.42,177.6,54.71,178.14,54Z"/><path class="cls-47" d="M173.33,57.08a3.75,3.75,0,0,0,3.31,1.69c2-.12,2.3-4.56,1-5.51a2.51,2.51,0,0,0-1.95-.26c-.41.11-.54.28-1.21.45s-.79.09-1,.24-.4.68,0,2a1.07,1.07,0,0,0-1.15-.38.65.65,0,0,0-.27.25C171.81,56.05,172.27,56.7,173.33,57.08Z"/><g class="cls-19"><path class="cls-48" d="M167.8,108c-.82-6.82-6.31-7.17-9.9-15.82-3.75-9.07.14-13.79-3.56-17-5.46-4.76-18.38,1.68-23.74,4.35a67.83,67.83,0,0,0-18.53,13.7c1.28-.46,2.65-1,4.09-1.63,6.92-3.05,8.13-5.17,14.64-7.52,4.47-1.61,10.19-3.59,14.24-.79a8.61,8.61,0,0,1,2.81,3.4c-.55,5.24-1.14,9.4-1.45,12-2.72,22.74-3.11,26.88-.32,29.45,2.44,2.24,4.09.37,16,1.8,2.6.31,4.69.66,6.42,1-3.29-3.51-4.26-6.55-4.28-9C164.19,116.55,168.55,114.34,167.8,108Z"/></g><path class="cls-49" d="M171.78,65.41S172.25,68,173,68a12.36,12.36,0,0,1,1.29.15l1-2.39-1.84-.17Z"/><path class="cls-50" d="M172.65,67.8S171,86.46,165.16,89.45c.15.59,0,5.45,0,5.45s5.43-1.64,5.74-1.53,6.57-10.28,3.39-25.21Z"/></g><path class="cls-51" d="M253.09,199.51c2.41-14.54-8-28.38-23.28-30.91s-29.6,7.21-32,21.75a26.27,26.27,0,0,0,8,23.32,11,11,0,0,1,3.28,9.75l-.33,2a8,8,0,0,0,6.61,9.24l6.79,1.12a8,8,0,0,0,9.24-6.61l.33-2A11,11,0,0,1,238,219,26.26,26.26,0,0,0,253.09,199.51Z"/><ellipse class="cls-52" cx="216.82" cy="246.98" rx="3.29" ry="6.22" transform="translate(-62.28 420.5) rotate(-80.59)"/><path class="cls-53" d="M209.63,239.83l-.55,3.31a3,3,0,0,0,1.22,2.91,15.83,15.83,0,0,0,6.92,2.5,16.24,16.24,0,0,0,5.86-.05,3,3,0,0,0,2.26-2.44l.31-1.84Z"/><path class="cls-54" d="M209.15,242.73a3.15,3.15,0,0,0,.76.74c1.45,1,11.51,4.41,14.15,3.89A3.57,3.57,0,0,0,225,247a3,3,0,0,0,.33-1l.31-1.84-16-4.39Z"/><path class="cls-55" d="M210.73,237.69a1.57,1.57,0,0,0-2,1.26l0,.1a3.33,3.33,0,0,0,1.36,3.26c1.46,1,11.51,4.4,14.16,3.88a3.06,3.06,0,0,0,2.51-2.55v-.08a1.59,1.59,0,0,0-1.14-1.78Z"/><path class="cls-56" d="M225.64,241.78l-14.91-4.09a1.58,1.58,0,0,0-1.57.44,3.28,3.28,0,0,0,1.32,1.93c1.45,1,11.9,4.7,14.12,4.07a3.55,3.55,0,0,0,2.05-1.49A1.58,1.58,0,0,0,225.64,241.78Z"/><path class="cls-57" d="M211,232.22a1.14,1.14,0,0,0-1.31.94l-.43,2.59a3.3,3.3,0,0,0,1.36,3.26c1.45,1,11.91,4.7,14.12,4.07a3.46,3.46,0,0,0,2.54-2.74l.69-4.15a1.14,1.14,0,0,0-.94-1.31Z"/><ellipse class="cls-58" cx="218.91" cy="234.36" rx="2.14" ry="9.04" transform="translate(-48.08 412.01) rotate(-80.59)"/><path class="cls-59" d="M253.09,199.51c2.41-14.54-8-28.38-23.28-30.91s-29.6,7.21-32,21.75a26.27,26.27,0,0,0,8,23.32,11,11,0,0,1,3.28,9.75l-.33,2a8,8,0,0,0,6.61,9.24l6.79,1.12a8,8,0,0,0,9.24-6.61l.33-2A11,11,0,0,1,238,219,26.26,26.26,0,0,0,253.09,199.51Z"/><ellipse class="cls-60" cx="219.19" cy="232.69" rx="1.56" ry="6.61" transform="translate(-46.21 410.89) rotate(-80.59)"/><path class="cls-61" d="M217.33,233.35A.37.37,0,0,1,217,233l1.39-38.11a.38.38,0,0,1,.39-.37.37.37,0,0,1,.37.39L217.78,233a.39.39,0,0,1-.4.37Z"/><path class="cls-62" d="M220.31,233.85h-.05a.39.39,0,0,1-.25-.48l11-36.53a.39.39,0,0,1,.48-.25.38.38,0,0,1,.25.47l-11,36.53A.38.38,0,0,1,220.31,233.85Z"/><path class="cls-63" d="M230.46,196.82a.38.38,0,0,1-.28-.23l-1-2.23a.05.05,0,0,0-.05,0,0,0,0,0,0-.06,0L228,195.67a.83.83,0,0,1-1.38-.2l-.9-2a.05.05,0,0,0-.05,0h-.06l-1.3,1.35a.83.83,0,0,1-.73.25h0a.82.82,0,0,1-.61-.47l-1.16-2.43a.05.05,0,0,0-.05,0s0,0-.06,0l-1.78,2.17a.39.39,0,0,1-.54.05.38.38,0,0,1-.05-.54l1.78-2.17a.81.81,0,0,1,.74-.29.84.84,0,0,1,.65.46l1.16,2.44s0,0,0,0,0,0,.06,0l1.31-1.35a.85.85,0,0,1,.73-.24.83.83,0,0,1,.61.48l.91,2s0,0,0,0a.07.07,0,0,0,.06,0l1.12-1.32a.83.83,0,0,1,.75-.28.8.8,0,0,1,.63.48l1,2.23a.4.4,0,0,1-.2.51A.41.41,0,0,1,230.46,196.82Z"/><path class="cls-64" d="M222.51,215.78c2.27-10.05,19.77-9.59,21.2-18.67.88-5.58-5.23-10.86-6.55-11.93-9.68-7.89-24-3-25.9-8.45a4.72,4.72,0,0,1,.38-3.4,7.21,7.21,0,0,1,2.34-3,26,26,0,0,0-8.17,43.29,11,11,0,0,1,3.28,9.75l-.33,2a8,8,0,0,0,6.61,9.24l6.79,1.12a8,8,0,0,0,9.24-6.61l.27-1.61a5.33,5.33,0,0,1-3.39.68C224.2,227.55,221.37,220.78,222.51,215.78Z"/><ellipse class="cls-65" cx="225.72" cy="196.03" rx="23.26" ry="24.12" transform="translate(-4.58 386.66) rotate(-80.59)"/><path class="cls-66" d="M52.78,179.57a11.64,11.64,0,0,1-12.05,11.88,13.64,13.64,0,0,1-13-13.57,11.62,11.62,0,0,1,13-11.82A13.73,13.73,0,0,1,52.78,179.57Z"/><path class="cls-67" d="M54.61,179a11.65,11.65,0,0,1-12.06,11.88,13.65,13.65,0,0,1-13-13.57,11.62,11.62,0,0,1,13-11.83A13.75,13.75,0,0,1,54.61,179Z"/><path class="cls-68" d="M54.08,179a11.12,11.12,0,0,1-11.53,11.34A13,13,0,0,1,30.2,177.34a11.1,11.1,0,0,1,12.35-11.29A13.11,13.11,0,0,1,54.08,179Z"/><path class="cls-69" d="M53.7,178.92a10.74,10.74,0,0,1-11.15,11,12.58,12.58,0,0,1-11.91-12.51,10.72,10.72,0,0,1,11.91-10.91A12.67,12.67,0,0,1,53.7,178.92Z"/><path class="cls-70" d="M42.49,168.59a.69.69,0,0,1,.6.67v1.15a17.45,17.45,0,0,1,2,.35c.49.12,1,.25,1.46.41a.68.68,0,0,1,.46.69l-.14,1.45a.54.54,0,0,1-.77.45,8.94,8.94,0,0,0-1-.37,9.27,9.27,0,0,0-1.86-.34l-.17,0v3.3a8.67,8.67,0,0,1,3.83,2,4.15,4.15,0,0,1,1.23,3.06,4,4,0,0,1-1.36,3.18A6.2,6.2,0,0,1,43,185.88v1.27a.58.58,0,0,1-.6.59h0a.64.64,0,0,1-.6-.64v-1.26h-.27a15.55,15.55,0,0,1-2.22-.24,12.77,12.77,0,0,1-1.54-.35.66.66,0,0,1-.48-.68l.16-1.86a.58.58,0,0,1,.82-.48,13.46,13.46,0,0,0,1.36.44,11.33,11.33,0,0,0,2.16.36v-3.67A7.9,7.9,0,0,1,38,177.52a4.2,4.2,0,0,1-1.24-3.11,3.66,3.66,0,0,1,1.34-3,6,6,0,0,1,3.78-1v-1.18A.55.55,0,0,1,42.49,168.59Zm-.6,4.41a2.1,2.1,0,0,0-1.21.42,1.27,1.27,0,0,0-.43,1,1.38,1.38,0,0,0,.4,1,2.93,2.93,0,0,0,1.24.63ZM43,179.64V183a1.86,1.86,0,0,0,1.29-.4,1.45,1.45,0,0,0,.45-1.13,1.53,1.53,0,0,0-.42-1.11A3,3,0,0,0,43,179.64Z"/><path class="cls-71" d="M40.54,180.46c.37-3.72,3.79-5.3,3.35-8.72-.28-2.11-1.88-3.89-3.66-5.27a10.71,10.71,0,0,0-9.59,10.9,12.58,12.58,0,0,0,11.91,12.51,11.3,11.3,0,0,0,1.85-.09C41.82,187.23,40.21,183.65,40.54,180.46Z"/><path class="cls-72" d="M34.6,159.93a8,8,0,0,1-8.32,8.21,9.42,9.42,0,0,1-8.94-9.37,8,8,0,0,1,8.94-8.16A9.47,9.47,0,0,1,34.6,159.93Z"/><path class="cls-73" d="M35.87,159.53a8,8,0,0,1-8.33,8.2,9.41,9.41,0,0,1-8.94-9.36,8,8,0,0,1,8.94-8.16A9.48,9.48,0,0,1,35.87,159.53Z"/><path class="cls-74" d="M35.5,159.51a7.67,7.67,0,0,1-8,7.82A9,9,0,0,1,19,158.4a7.66,7.66,0,0,1,8.52-7.8A9.06,9.06,0,0,1,35.5,159.51Z"/><path class="cls-75" d="M35.24,159.49a7.42,7.42,0,0,1-7.7,7.56,8.68,8.68,0,0,1-8.22-8.63,7.4,7.4,0,0,1,8.22-7.53A8.75,8.75,0,0,1,35.24,159.49Z"/><path class="cls-76" d="M27.5,152.36a.46.46,0,0,1,.41.46v.8a13.24,13.24,0,0,1,1.38.23c.34.08.68.18,1,.29a.47.47,0,0,1,.32.48l-.1,1a.37.37,0,0,1-.53.31c-.22-.09-.45-.18-.68-.25a6.45,6.45,0,0,0-1.28-.24h-.12v2.28a5.92,5.92,0,0,1,2.65,1.35,2.87,2.87,0,0,1,.84,2.11,2.78,2.78,0,0,1-.93,2.19,4.26,4.26,0,0,1-2.65.94v.88a.4.4,0,0,1-.42.4h0a.45.45,0,0,1-.42-.44v-.87h-.19a12.34,12.34,0,0,1-1.53-.17,9.07,9.07,0,0,1-1.06-.24.45.45,0,0,1-.33-.47l.11-1.29a.41.41,0,0,1,.57-.33c.31.12.62.22.93.31a8.43,8.43,0,0,0,1.49.25v-2.54a5.38,5.38,0,0,1-2.57-1.26,2.89,2.89,0,0,1-.86-2.15,2.51,2.51,0,0,1,.93-2.09,4.13,4.13,0,0,1,2.6-.72v-.82A.38.38,0,0,1,27.5,152.36Zm-.42,3a1.38,1.38,0,0,0-.83.29.84.84,0,0,0-.29.68.91.91,0,0,0,.27.68,1.88,1.88,0,0,0,.85.44Zm.74,4.59v2.32a1.27,1.27,0,0,0,.89-.28,1,1,0,0,0,.31-.78,1.06,1.06,0,0,0-.29-.76A2,2,0,0,0,27.82,160Z"/><path class="cls-77" d="M26.15,160.55c.26-2.57,2.62-3.66,2.31-6a6,6,0,0,0-2.52-3.64,7.4,7.4,0,0,0-6.62,7.53,8.68,8.68,0,0,0,8.22,8.63,8.79,8.79,0,0,0,1.27-.06A8.44,8.44,0,0,1,26.15,160.55Z"/></g></g></g></g></svg>