<svg xmlns="http://www.w3.org/2000/svg" viewBox="0 0 38.52 38.74"><defs><style>.cls-1{fill:#363b54;}</style></defs><g id="Layer_2" data-name="Layer 2"><g id="Layer_1-2" data-name="Layer 1"><path class="cls-1" d="M28.61,10.13a5.28,5.28,0,1,0,0,7.47A5.29,5.29,0,0,0,28.61,10.13Zm-6,6a3.17,3.17,0,1,1,4.48,0A3.16,3.16,0,0,1,22.64,16.11Z"/><path class="cls-1" d="M23.81,29.14a35.45,35.45,0,0,0,9.06-9.59A36,36,0,0,0,38.52,1.08,1,1,0,0,0,38.2.3a1,1,0,0,0-.8-.3,38.81,38.81,0,0,0-9.22,1.7h0a37.07,37.07,0,0,0-9,4.18A37.6,37.6,0,0,0,9.51,15,9.92,9.92,0,0,0,2,20.52L.1,24.46a1.07,1.07,0,0,0,.13,1.11l.08.08a1,1,0,0,0,1,.29l3.91-.87.73.72a8.1,8.1,0,0,0-1.16,1C2.53,29,.65,36.2.45,37a1,1,0,0,0,.27,1,1.08,1.08,0,0,0,1,.28c.81-.21,8-2.09,10.26-4.33a8.61,8.61,0,0,0,1-1.15l.73.72-.87,3.92a1.05,1.05,0,0,0,.28,1l.09.08a1.06,1.06,0,0,0,1.11.13l3.93-1.85A9.93,9.93,0,0,0,23.81,29.14ZM36.35,2.2a34.61,34.61,0,0,1-1.09,6.73,8,8,0,0,1-3.41-2A7.89,7.89,0,0,1,29.8,3.42,36.34,36.34,0,0,1,36.35,2.2ZM2.93,23.41l.94-2a7.79,7.79,0,0,1,3.76-3.73,38.74,38.74,0,0,0-2.75,5.23l0,.06Zm7.56,9.07C9.28,33.69,5.54,35,3,35.75c.76-2.55,2.06-6.29,3.27-7.5a5.56,5.56,0,0,1,1.2-.92l4,4A5.6,5.6,0,0,1,10.49,32.48Zm3-2.14h0L8.4,25.28h0L6.85,23.73l3.83-6.81a35.59,35.59,0,0,1,9.67-9.25,35.15,35.15,0,0,1,7.44-3.61,10,10,0,0,0,2.56,4.33A10.22,10.22,0,0,0,34.66,11a33.36,33.36,0,0,1-3.56,7.46A33.54,33.54,0,0,1,20.82,28.62l-3.47,2c-.92.45-1.77.82-2.53,1.12Zm3.86,4.54-2,.93.42-1.92,2.59-1.45c.89-.44,1.83-.95,2.8-1.54A7.78,7.78,0,0,1,17.32,34.88Z"/></g></g></svg>