<svg xmlns="http://www.w3.org/2000/svg" viewBox="0 0 18.92 14.94"><defs><style>.cls-1{fill:#fa0;}</style></defs><g id="Layer_2" data-name="Layer 2"><g id="Layer_1-2" data-name="Layer 1"><path class="cls-1" d="M11.45,14.94a7.44,7.44,0,0,1-5.29-2.18l1-1A6.11,6.11,0,0,0,17.55,7.47a6,6,0,0,0-1.79-4.31,6.09,6.09,0,0,0-8.63,0l-1-1a7.47,7.47,0,0,1,10.57,0,7.47,7.47,0,0,1,0,10.57A7.42,7.42,0,0,1,11.45,14.94Z"/><rect class="cls-1" y="6.74" width="11.45" height="1.45"/><polygon class="cls-1" points="11.45 7.47 10.07 3.63 12.78 5.55 15.48 7.47 12.78 9.39 10.07 11.32 11.45 7.47"/></g></g></svg>