<svg xmlns="http://www.w3.org/2000/svg" viewBox="0 0 28.14 19.13"><defs><style>.cls-1{fill:#ff9700;stroke:#b76400;stroke-miterlimit:10;stroke-width:0.67px;}</style></defs><g id="Layer_2" data-name="Layer 2"><g id="Layer_1-2" data-name="Layer 1"><path class="cls-1" d="M13.21,12.58A5.88,5.88,0,0,1,11.33,17,5.89,5.89,0,0,1,7,18.79a6,6,0,0,1-4.9-2.28A7.76,7.76,0,0,1,.34,11.33Q.34,5.69,9.91.45l.91,1.42Q7.57,4.56,7.57,6.2c0,.34.46.69,1.37,1a8.53,8.53,0,0,1,2.79,1.42A4.87,4.87,0,0,1,13.21,12.58Z"/><path class="cls-1" d="M27.8,12.58A6.2,6.2,0,0,1,26.09,17a5.93,5.93,0,0,1-4.38,1.82,5.94,5.94,0,0,1-4.9-2.28A7.61,7.61,0,0,1,15,11.33Q15,5.69,24.56.45l1,1.42Q22.22,4.56,22.22,6.2c0,.34.49.69,1.48,1a8.71,8.71,0,0,1,2.74,1.42A5.11,5.11,0,0,1,27.8,12.58Z"/></g></g></svg>