<svg xmlns="http://www.w3.org/2000/svg" viewBox="0 0 30.7 20.84"><defs><style>.cls-1{fill:#ff9700;stroke:#b76400;stroke-miterlimit:10;stroke-width:0.67px;}</style></defs><g id="Layer_2" data-name="Layer 2"><g id="Layer_1-2" data-name="Layer 1"><path class="cls-1" d="M16.29,7.13a6.44,6.44,0,0,1,2.05-4.8,6.47,6.47,0,0,1,4.74-2,6.48,6.48,0,0,1,5.35,2.49A8.49,8.49,0,0,1,30.36,8.5q0,6.16-10.46,11.89l-1-1.55c2.37-2,3.55-3.53,3.55-4.74,0-.37-.5-.75-1.49-1.12a9.47,9.47,0,0,1-3.05-1.56A5.3,5.3,0,0,1,16.29,7.13Z"/><path class="cls-1" d="M.34,7.13a6.76,6.76,0,0,1,1.87-4.8A6.5,6.5,0,0,1,7,.34a6.52,6.52,0,0,1,5.36,2.49,8.33,8.33,0,0,1,2,5.67q0,6.16-10.46,11.89L2.77,18.84c2.45-2,3.67-3.53,3.67-4.74,0-.37-.54-.75-1.62-1.12a9.58,9.58,0,0,1-3-1.56A5.53,5.53,0,0,1,.34,7.13Z"/></g></g></svg>