<svg xmlns="http://www.w3.org/2000/svg" viewBox="0 0 19.58 16.13"><defs><style>.cls-1{fill:#fff;}</style></defs><g id="Layer_2" data-name="Layer 2"><g id="Layer_1-2" data-name="Layer 1"><path class="cls-1" d="M19.51,1.93a8.15,8.15,0,0,1-2,.57c.32-.06.79-.63,1-.87A3.49,3.49,0,0,0,19.16.44s0-.08,0-.11a.11.11,0,0,0-.11,0,10.28,10.28,0,0,1-2.35.9.16.16,0,0,1-.16,0,2,2,0,0,0-.2-.21A4.07,4.07,0,0,0,15.2.29,4,4,0,0,0,13.45,0a4.28,4.28,0,0,0-3,1.56,4.09,4.09,0,0,0-.8,1.6,4.52,4.52,0,0,0,0,1.68c0,.1,0,.11-.08.1A12.55,12.55,0,0,1,1.47.84c-.1-.11-.15-.11-.22,0a4.09,4.09,0,0,0,.69,4.83c.16.15.32.3.5.44A4.15,4.15,0,0,1,.88,5.68c-.09-.06-.14,0-.15.08a2.53,2.53,0,0,0,0,.47,4.14,4.14,0,0,0,2.55,3.3,2.85,2.85,0,0,0,.52.15,4.58,4.58,0,0,1-1.53.05c-.11,0-.16,0-.11.14A4.27,4.27,0,0,0,5.4,12.56c.14,0,.29,0,.43.06s0,0,0,0c-.36.55-1.61.95-2.19,1.16a7.85,7.85,0,0,1-3.33.42c-.18,0-.22,0-.27,0s0,.08.05.12c.23.15.46.29.7.42A11.83,11.83,0,0,0,3,15.66,11.86,11.86,0,0,0,14.5,13a12.06,12.06,0,0,0,3.19-8.81c0-.12.14-.19.23-.26a7.54,7.54,0,0,0,1.56-1.63.44.44,0,0,0,.1-.31v0C19.58,1.88,19.59,1.9,19.51,1.93Z"/></g></g></svg>